<svg viewBox="0 0 318.76 277.84" xmlns:xlink="http://www.w3.org/1999/xlink" xmlns="http://www.w3.org/2000/svg"><defs><style>.cls-1{opacity:0.46;}.cls-2{fill:url(#未命名的渐变_37);}.cls-3{fill:#fff;}.cls-4{fill:url(#未命名的渐变_37-2);}.cls-5{fill:url(#未命名的渐变_37-3);}.cls-6{opacity:0.18;}.cls-7{fill:url(#未命名的渐变_37-4);}.cls-8{fill:url(#未命名的渐变_37-5);}.cls-9{fill:url(#未命名的渐变_28);}.cls-10{fill:url(#未命名的渐变_37-6);}.cls-11{fill:url(#未命名的渐变_37-7);}.cls-12{fill:url(#未命名的渐变_25);}.cls-13{fill:#bd8aae;}.cls-14{fill:url(#未命名的渐变_28-2);}.cls-15{fill:#3c7fbe;}.cls-16{fill:#cde9f9;}.cls-17{fill:url(#未命名的渐变_25-2);}.cls-18{fill:url(#未命名的渐变_25-3);}.cls-19{fill:url(#未命名的渐变_25-4);}.cls-20{fill:#69aadd;}.cls-21{opacity:0.53;}.cls-22,.cls-50{isolation:isolate;}.cls-23{fill:url(#未命名的渐变_19);}.cls-24{fill:url(#未命名的渐变_19-2);}.cls-25{fill:url(#未命名的渐变_19-3);}.cls-26{fill:url(#未命名的渐变_37-8);}.cls-27{fill:#aecfdc;}.cls-28{fill:#2a2f6d;}.cls-29{fill:url(#未命名的渐变_37-9);}.cls-30{opacity:0.5;}.cls-31{fill:url(#未命名的渐变_18);}.cls-32{fill:url(#未命名的渐变_48);}.cls-33{fill:#222457;}.cls-34{fill:#214b72;}.cls-35{fill:url(#未命名的渐变_57);}.cls-36{fill:url(#未命名的渐变_25-5);}.cls-37{fill:#90a0a5;}.cls-38{fill:#fde0d9;}.cls-39{fill:url(#未命名的渐变_25-6);}.cls-40{fill:url(#未命名的渐变_17);}.cls-41{fill:#7d989f;}.cls-42{fill:url(#未命名的渐变_25-7);}.cls-43{fill:#ecbfb9;}.cls-44{fill:url(#未命名的渐变_25-8);}.cls-45{fill:url(#未命名的渐变_56);}.cls-46{opacity:0.31;}.cls-47{fill:#a87b9c;}.cls-48{fill:url(#未命名的渐变_48-2);}.cls-49{fill:url(#未命名的渐变_19-4);}.cls-50{opacity:0.36;fill:url(#未命名的渐变_19-5);}.cls-51{fill:url(#未命名的渐变_25-9);}.cls-52{fill:url(#未命名的渐变_37-10);}.cls-53{fill:#e7f6fd;}.cls-54{fill:url(#未命名的渐变_37-11);}.cls-55{fill:url(#未命名的渐变_37-12);}.cls-56{fill:url(#未命名的渐变_37-13);}.cls-57{fill:url(#未命名的渐变_37-14);}.cls-58{fill:url(#未命名的渐变_37-15);}.cls-59{fill:url(#未命名的渐变_37-16);}.cls-60{fill:url(#未命名的渐变_37-17);}.cls-61{fill:url(#未命名的渐变_37-18);}.cls-62{fill:url(#未命名的渐变_25-10);}.cls-63{fill:url(#未命名的渐变_37-19);}.cls-64{fill:url(#未命名的渐变_37-20);}.cls-65{fill:url(#未命名的渐变_37-21);}.cls-66{fill:url(#未命名的渐变_37-22);}.cls-67{fill:url(#未命名的渐变_37-23);}.cls-68{fill:url(#未命名的渐变_37-24);}.cls-69{fill:url(#未命名的渐变_37-25);}.cls-70{fill:url(#未命名的渐变_37-26);}.cls-71{fill:url(#未命名的渐变_25-11);}.cls-72{fill:url(#未命名的渐变_37-27);}.cls-73{fill:url(#未命名的渐变_37-28);}.cls-74{fill:url(#未命名的渐变_37-29);}.cls-75{fill:url(#未命名的渐变_37-30);}.cls-76{fill:url(#未命名的渐变_37-31);}.cls-77{fill:url(#未命名的渐变_37-32);}.cls-78{fill:url(#未命名的渐变_37-33);}.cls-79{fill:url(#未命名的渐变_37-34);}.cls-80{fill:url(#未命名的渐变_25-12);}.cls-81{fill:url(#未命名的渐变_37-35);}.cls-82{fill:url(#未命名的渐变_37-36);}.cls-83{fill:url(#未命名的渐变_37-37);}.cls-84{fill:url(#未命名的渐变_37-38);}.cls-85{fill:url(#未命名的渐变_37-39);}.cls-86{fill:url(#未命名的渐变_37-40);}.cls-87{fill:url(#未命名的渐变_37-41);}.cls-88{fill:url(#未命名的渐变_37-42);}.cls-89{fill:url(#未命名的渐变_25-13);}.cls-90{fill:url(#未命名的渐变_37-43);}.cls-91{fill:url(#未命名的渐变_37-44);}</style><linearGradient gradientUnits="userSpaceOnUse" gradientTransform="matrix(1, 0, 0, -1, 0, 319.98)" y2="217.28" x2="71.23" y1="217.28" x1="0.19" id="未命名的渐变_37"><stop stop-color="#28a8e0" offset="0.06"></stop><stop stop-opacity="0" stop-color="#29abe2" offset="1"></stop></linearGradient><linearGradient xlink:href="#未命名的渐变_37" y2="247.9" x2="150.48" y1="247.9" x1="79.44" id="未命名的渐变_37-2"></linearGradient><linearGradient xlink:href="#未命名的渐变_37" y2="287.94" x2="156.47" y1="287.94" x1="85.43" id="未命名的渐变_37-3"></linearGradient><linearGradient xlink:href="#未命名的渐变_37" y2="89.85" x2="280.35" y1="89.85" x1="114.48" id="未命名的渐变_37-4"></linearGradient><linearGradient xlink:href="#未命名的渐变_37" y2="122.52" x2="184.89" y1="122.52" x1="19.01" id="未命名的渐变_37-5"></linearGradient><linearGradient gradientUnits="userSpaceOnUse" gradientTransform="matrix(1, 0, 0, -1, 0, 319.98)" y2="240.36" x2="303.43" y1="240.36" x1="179.64" id="未命名的渐变_28"><stop stop-color="#21409a" offset="0"></stop><stop stop-opacity="0" stop-color="#29abe2" offset="1"></stop></linearGradient><linearGradient xlink:href="#未命名的渐变_37" y2="238.3" x2="298.85" y1="238.3" x1="177.16" id="未命名的渐变_37-6"></linearGradient><linearGradient xlink:href="#未命名的渐变_37" y2="238.3" x2="298.66" y1="238.3" x1="177.34" id="未命名的渐变_37-7"></linearGradient><linearGradient gradientUnits="userSpaceOnUse" gradientTransform="matrix(1, 0, 0, -1, 0, 319.98)" y2="285.29" x2="209.4" y1="285.29" x1="185.06" id="未命名的渐变_25"><stop stop-color="#bd8aae" offset="0"></stop><stop stop-opacity="0" stop-color="#2484c6" offset="1"></stop></linearGradient><linearGradient xlink:href="#未命名的渐变_28" y2="217.44" x2="285.57" y1="217.44" x1="212.55" id="未命名的渐变_28-2"></linearGradient><linearGradient xlink:href="#未命名的渐变_25" y2="218.56" x2="249.44" y1="218.56" x1="243.17" id="未命名的渐变_25-2"></linearGradient><linearGradient xlink:href="#未命名的渐变_25" y2="209.25" x2="264.41" y1="209.25" x1="243.16" id="未命名的渐变_25-3"></linearGradient><linearGradient xlink:href="#未命名的渐变_25" y2="201.6" x2="256.26" y1="201.6" x1="243.13" id="未命名的渐变_25-4"></linearGradient><linearGradient gradientUnits="userSpaceOnUse" gradientTransform="matrix(1, 0, 0, -1, 0, 319.98)" y2="232.05" x2="198" y1="232.05" x1="195.91" id="未命名的渐变_19"><stop stop-color="#6b385f" offset="0"></stop><stop stop-opacity="0.73" stop-color="#6f3b62" offset="0.42"></stop><stop stop-opacity="0.6" stop-color="#764268" offset="0.52"></stop><stop stop-opacity="0.39" stop-color="#8c567a" offset="0.69"></stop><stop stop-opacity="0.11" stop-color="#b5799b" offset="0.91"></stop><stop stop-opacity="0" stop-color="#cc8dae" offset="1"></stop></linearGradient><linearGradient xlink:href="#未命名的渐变_19" y2="244.74" x2="200.13" y1="244.74" x1="191.1" id="未命名的渐变_19-2"></linearGradient><linearGradient xlink:href="#未命名的渐变_19" y2="237.72" x2="198.08" y1="237.72" x1="184.57" id="未命名的渐变_19-3"></linearGradient><linearGradient xlink:href="#未命名的渐变_37" y2="158.83" x2="295.19" y1="158.83" x1="223.78" id="未命名的渐变_37-8"></linearGradient><linearGradient xlink:href="#未命名的渐变_37" y2="261.67" x2="169.84" y1="261.67" x1="125.35" id="未命名的渐变_37-9"></linearGradient><linearGradient gradientUnits="userSpaceOnUse" gradientTransform="translate(950.51 319.98) rotate(180)" y2="258.14" x2="799.56" y1="258.14" x1="780.91" id="未命名的渐变_18"><stop stop-color="#fff" offset="0.42"></stop><stop stop-opacity="0" stop-color="#2484c6" offset="1"></stop></linearGradient><linearGradient gradientUnits="userSpaceOnUse" gradientTransform="matrix(0.91, 0.41, 0.41, -0.91, -41.34, 100.9)" y2="86.49" x2="155.34" y1="86.49" x1="147.22" id="未命名的渐变_48"><stop stop-color="#21409a" offset="0.24"></stop><stop stop-opacity="0.55" stop-color="#215dab" offset="0.66"></stop><stop stop-opacity="0" stop-color="#29abe2" offset="1"></stop></linearGradient><linearGradient gradientUnits="userSpaceOnUse" gradientTransform="matrix(1, 0, 0, -1, 0, 319.98)" y2="123.12" x2="195.11" y1="90.31" x1="162.3" id="未命名的渐变_57"><stop stop-color="#2b618e" offset="0.59"></stop><stop stop-opacity="0" stop-color="#29abe2" offset="1"></stop></linearGradient><linearGradient xlink:href="#未命名的渐变_25" y2="104.62" x2="196.17" y1="104.62" x1="185.71" id="未命名的渐变_25-5"></linearGradient><linearGradient xlink:href="#未命名的渐变_25" y2="161.86" x2="197.89" y1="161.86" x1="158.98" id="未命名的渐变_25-6"></linearGradient><linearGradient gradientUnits="userSpaceOnUse" gradientTransform="matrix(1, 0, 0, -1, 0, 319.98)" y2="161.56" x2="177.21" y1="161.56" x1="158.98" id="未命名的渐变_17"><stop stop-color="#a7a9ac" offset="0"></stop><stop stop-opacity="0" stop-color="#2484c6" offset="1"></stop></linearGradient><linearGradient xlink:href="#未命名的渐变_25" y2="180.02" x2="195.57" y1="180.02" x1="167.44" id="未命名的渐变_25-7"></linearGradient><linearGradient xlink:href="#未命名的渐变_25" y2="153.54" x2="123" y1="153.54" x1="107.28" id="未命名的渐变_25-8"></linearGradient><linearGradient gradientUnits="userSpaceOnUse" gradientTransform="matrix(1, 0, 0, -1, 0, 319.98)" y2="207.87" x2="110.74" y1="207.87" x1="92.16" id="未命名的渐变_56"><stop stop-color="#21409a" offset="0.54"></stop><stop stop-opacity="0.36" stop-color="#2058a8" offset="0.81"></stop><stop stop-opacity="0" stop-color="#29abe2" offset="1"></stop></linearGradient><linearGradient xlink:href="#未命名的渐变_48" gradientTransform="matrix(1, 0, 0, -1, 0, 319.98)" y2="207.42" x2="139.46" y1="207.42" x1="110.35" id="未命名的渐变_48-2"></linearGradient><linearGradient xlink:href="#未命名的渐变_19" y2="213.47" x2="107.28" y1="213.47" x1="72" id="未命名的渐变_19-4"></linearGradient><linearGradient xlink:href="#未命名的渐变_19" y2="222.68" x2="101.45" y1="222.68" x1="74.54" id="未命名的渐变_19-5"></linearGradient><linearGradient xlink:href="#未命名的渐变_25" y2="227.35" x2="105.97" y1="227.35" x1="69.94" id="未命名的渐变_25-9"></linearGradient><linearGradient xlink:href="#未命名的渐变_37" y2="110.33" x2="308.63" y1="110.33" x1="216.05" id="未命名的渐变_37-10"></linearGradient><linearGradient xlink:href="#未命名的渐变_37" y2="139.69" x2="281.71" y1="139.69" x1="281.7" id="未命名的渐变_37-11"></linearGradient><linearGradient xlink:href="#未命名的渐变_37" y2="136.7" x2="295.05" y1="136.7" x1="293.28" id="未命名的渐变_37-12"></linearGradient><linearGradient xlink:href="#未命名的渐变_37" y2="136.7" x2="274.5" y1="136.7" x1="272.71" id="未命名的渐变_37-13"></linearGradient><linearGradient xlink:href="#未命名的渐变_37" y2="134.15" x2="289.58" y1="134.15" x1="278.23" id="未命名的渐变_37-14"></linearGradient><linearGradient xlink:href="#未命名的渐变_37" y2="130.06" x2="297.55" y1="130.06" x1="293.32" id="未命名的渐变_37-15"></linearGradient><linearGradient xlink:href="#未命名的渐变_37" y2="130.05" x2="274.54" y1="130.05" x1="270.28" id="未命名的渐变_37-16"></linearGradient><linearGradient xlink:href="#未命名的渐变_37" y2="126.93" x2="295.11" y1="126.93" x1="286.11" id="未命名的渐变_37-17"></linearGradient><linearGradient xlink:href="#未命名的渐变_37" y2="126.22" x2="286.12" y1="126.22" x1="272.76" id="未命名的渐变_37-18"></linearGradient><linearGradient xlink:href="#未命名的渐变_25" y2="133.19" x2="297.55" y1="133.19" x1="270.27" id="未命名的渐变_25-10"></linearGradient><linearGradient xlink:href="#未命名的渐变_37" y2="127.56" x2="262.57" y1="127.56" x1="262.56" id="未命名的渐变_37-19"></linearGradient><linearGradient xlink:href="#未命名的渐变_37" y2="125.24" x2="272.93" y1="125.24" x1="271.55" id="未命名的渐变_37-20"></linearGradient><linearGradient xlink:href="#未命名的渐变_37" y2="125.24" x2="256.97" y1="125.24" x1="255.59" id="未命名的渐变_37-21"></linearGradient><linearGradient xlink:href="#未命名的渐变_37" y2="123.26" x2="268.68" y1="123.26" x1="259.87" id="未命名的渐变_37-22"></linearGradient><linearGradient xlink:href="#未命名的渐变_37" y2="120.09" x2="274.86" y1="120.09" x1="271.58" id="未命名的渐变_37-23"></linearGradient><linearGradient xlink:href="#未命名的渐变_37" y2="120.09" x2="257" y1="120.09" x1="253.7" id="未命名的渐变_37-24"></linearGradient><linearGradient xlink:href="#未命名的渐变_37" y2="117.66" x2="272.97" y1="117.66" x1="265.98" id="未命名的渐变_37-25"></linearGradient><linearGradient xlink:href="#未命名的渐变_37" y2="117.11" x2="265.99" y1="117.11" x1="255.63" id="未命名的渐变_37-26"></linearGradient><linearGradient xlink:href="#未命名的渐变_25" y2="122.52" x2="274.86" y1="122.52" x1="253.7" id="未命名的渐变_25-11"></linearGradient><linearGradient xlink:href="#未命名的渐变_37" y2="115.9" x2="244.68" y1="115.9" x1="244.67" id="未命名的渐变_37-27"></linearGradient><linearGradient xlink:href="#未命名的渐变_37" y2="113.58" x2="255.04" y1="113.58" x1="253.66" id="未命名的渐变_37-28"></linearGradient><linearGradient xlink:href="#未命名的渐变_37" y2="113.58" x2="239.08" y1="113.58" x1="237.7" id="未命名的渐变_37-29"></linearGradient><linearGradient xlink:href="#未命名的渐变_37" y2="111.6" x2="250.79" y1="111.6" x1="241.98" id="未命名的渐变_37-30"></linearGradient><linearGradient xlink:href="#未命名的渐变_37" y2="108.42" x2="256.97" y1="108.42" x1="253.69" id="未命名的渐变_37-31"></linearGradient><linearGradient xlink:href="#未命名的渐变_37" y2="108.42" x2="239.11" y1="108.42" x1="235.81" id="未命名的渐变_37-32"></linearGradient><linearGradient xlink:href="#未命名的渐变_37" y2="106" x2="255.08" y1="106" x1="248.09" id="未命名的渐变_37-33"></linearGradient><linearGradient xlink:href="#未命名的渐变_37" y2="105.45" x2="248.1" y1="105.45" x1="237.74" id="未命名的渐变_37-34"></linearGradient><linearGradient xlink:href="#未命名的渐变_25" y2="110.86" x2="256.97" y1="110.86" x1="235.8" id="未命名的渐变_25-12"></linearGradient><linearGradient xlink:href="#未命名的渐变_37" y2="113.99" x2="234.1" y1="113.99" x1="234.09" id="未命名的渐变_37-35"></linearGradient><linearGradient xlink:href="#未命名的渐变_37" y2="111.67" x2="244.45" y1="111.67" x1="243.08" id="未命名的渐变_37-36"></linearGradient><linearGradient xlink:href="#未命名的渐变_37" y2="111.67" x2="228.5" y1="111.67" x1="227.11" id="未命名的渐变_37-37"></linearGradient><linearGradient xlink:href="#未命名的渐变_37" y2="109.69" x2="240.21" y1="109.69" x1="231.4" id="未命名的渐变_37-38"></linearGradient><linearGradient xlink:href="#未命名的渐变_37" y2="106.51" x2="246.39" y1="106.51" x1="243.11" id="未命名的渐变_37-39"></linearGradient><linearGradient xlink:href="#未命名的渐变_37" y2="106.51" x2="228.53" y1="106.51" x1="225.23" id="未命名的渐变_37-40"></linearGradient><linearGradient xlink:href="#未命名的渐变_37" y2="104.09" x2="244.49" y1="104.09" x1="237.51" id="未命名的渐变_37-41"></linearGradient><linearGradient xlink:href="#未命名的渐变_37" y2="103.54" x2="237.52" y1="103.54" x1="227.15" id="未命名的渐变_37-42"></linearGradient><linearGradient xlink:href="#未命名的渐变_25" y2="108.94" x2="246.39" y1="108.94" x1="225.22" id="未命名的渐变_25-13"></linearGradient><linearGradient xlink:href="#未命名的渐变_37" y2="170.48" x2="312.16" y1="170.48" x1="285.53" id="未命名的渐变_37-43"></linearGradient><linearGradient xlink:href="#未命名的渐变_37" y2="194.82" x2="318.76" y1="194.82" x1="305.57" id="未命名的渐变_37-44"></linearGradient></defs><g id="图层_2"><g id="图层_1-2"><g id="bg"><g class="cls-1"><path d="M3.65,134.55a3.46,3.46,0,0,1-3.46-3.47V111.24a3.45,3.45,0,0,1,1.73-3L66,71.31a3.52,3.52,0,0,1,1.72-.46,3.47,3.47,0,0,1,3.47,3.46V94.16a3.47,3.47,0,0,1-1.74,3L5.37,134.08A3.42,3.42,0,0,1,3.65,134.55Z" class="cls-2"></path><path d="M67.76,71h0A3.28,3.28,0,0,1,71,74.31V94.16A3.28,3.28,0,0,1,69.4,97L5.28,133.92a3.17,3.17,0,0,1-1.63.44,3.28,3.28,0,0,1-3.28-3.28V111.24A3.28,3.28,0,0,1,2,108.4L66.13,71.48A3.18,3.18,0,0,1,67.76,71m0-.37a3.71,3.71,0,0,0-1.81.49L1.83,108.08A3.64,3.64,0,0,0,0,111.24v19.85a3.66,3.66,0,0,0,3.65,3.65,3.56,3.56,0,0,0,1.81-.5L69.59,97.32a3.64,3.64,0,0,0,1.82-3.16V74.31a3.65,3.65,0,0,0-3.65-3.65Z" class="cls-3"></path></g><g class="cls-1"><path d="M82.9,103.93a3.47,3.47,0,0,1-3.46-3.47V80.61a3.45,3.45,0,0,1,1.73-3l64.12-36.93a3.42,3.42,0,0,1,1.72-.47,3.48,3.48,0,0,1,3.47,3.47V63.54a3.49,3.49,0,0,1-1.74,3L84.62,103.46A3.42,3.42,0,0,1,82.9,103.93Z" class="cls-4"></path><path d="M147,40.41h0a3.28,3.28,0,0,1,3.28,3.28V63.54a3.28,3.28,0,0,1-1.64,2.83L84.53,103.3a3.27,3.27,0,0,1-4.91-2.84V80.61a3.28,3.28,0,0,1,1.64-2.83l64.12-36.93a3.27,3.27,0,0,1,1.63-.44m0-.37a3.58,3.58,0,0,0-1.81.49L81.08,77.45a3.67,3.67,0,0,0-1.83,3.16v19.85a3.65,3.65,0,0,0,3.65,3.65,3.55,3.55,0,0,0,1.81-.49L148.84,66.7a3.64,3.64,0,0,0,1.82-3.16V43.69A3.64,3.64,0,0,0,147,40Z" class="cls-3"></path></g><g class="cls-1"><path d="M88.9,63.89a3.47,3.47,0,0,1-3.47-3.47V40.57a3.45,3.45,0,0,1,1.73-3L151.29.65A3.36,3.36,0,0,1,153,.19a3.46,3.46,0,0,1,3.46,3.46V23.5a3.48,3.48,0,0,1-1.73,3L90.62,63.42A3.42,3.42,0,0,1,88.9,63.89Z" class="cls-5"></path><path d="M153,.37h0a3.28,3.28,0,0,1,3.28,3.28V23.5a3.3,3.3,0,0,1-1.64,2.84L90.52,63.26a3.23,3.23,0,0,1-1.62.44,3.28,3.28,0,0,1-3.28-3.28V40.57a3.26,3.26,0,0,1,1.64-2.83L151.38.81A3.27,3.27,0,0,1,153,.37M153,0a3.61,3.61,0,0,0-1.82.49L87.07,37.42a3.64,3.64,0,0,0-1.83,3.15V60.42a3.65,3.65,0,0,0,3.66,3.65,3.6,3.6,0,0,0,1.81-.49l64.12-36.92a3.65,3.65,0,0,0,1.83-3.16V3.65A3.65,3.65,0,0,0,153,0Z" class="cls-3"></path></g><g class="cls-6"><path d="M154.16,277.66a14.81,14.81,0,0,1-7.43-2L116.27,258a3.61,3.61,0,0,1,0-6.24l115.06-66.44a20.38,20.38,0,0,1,20.38,0l26.37,15.2a4.54,4.54,0,0,1,0,7.85L161.56,275.67A14.79,14.79,0,0,1,154.16,277.66Z" class="cls-7"></path><path d="M241.54,182.79a20.24,20.24,0,0,1,10.09,2.71L278,200.7a4.34,4.34,0,0,1,0,7.53L161.47,275.51a14.62,14.62,0,0,1-14.64,0l-30.46-17.64a3.42,3.42,0,0,1,0-5.92L231.44,185.5a20.22,20.22,0,0,1,10.1-2.71m0-.37a20.52,20.52,0,0,0-10.29,2.76L116.19,251.62a3.79,3.79,0,0,0,0,6.56l30.46,17.64a15,15,0,0,0,15,0l116.52-67.28a4.71,4.71,0,0,0,0-8.17l-26.37-15.2a20.48,20.48,0,0,0-10.27-2.76Z" class="cls-3"></path></g><g class="cls-6"><path d="M58.69,245a14.77,14.77,0,0,1-7.42-2L20.81,225.35a3.6,3.6,0,0,1,0-6.24l115.07-66.44a20.38,20.38,0,0,1,20.38,0l26.36,15.2a4.53,4.53,0,0,1,0,7.85L66.1,243a14.83,14.83,0,0,1-7.41,2Z" class="cls-8"></path><path d="M146.07,150.13a20.17,20.17,0,0,1,10.09,2.7L182.53,168a4.35,4.35,0,0,1,0,7.53L66,242.84a14.64,14.64,0,0,1-14.65,0L20.9,225.19a3.42,3.42,0,0,1,0-5.92L136,152.83a20.24,20.24,0,0,1,10.1-2.7m0-.38a20.58,20.58,0,0,0-10.29,2.76L20.72,219a3.79,3.79,0,0,0,0,6.56l30.46,17.64a15,15,0,0,0,15,0l116.53-67.28a4.72,4.72,0,0,0,0-8.17l-26.36-15.2a20.51,20.51,0,0,0-10.28-2.76Z" class="cls-3"></path></g></g><g id="monitor"><path d="M179.64,3.71l5.64-3.2a3.46,3.46,0,0,1,3.44,0L303.43,66.76v88.92l-6.25,3.49S266,69.73,254.33,62,179.64,3.71,179.64,3.71Z" class="cls-9"></path><path d="M177.16,7.22V85.89A9.35,9.35,0,0,0,181.79,94l111.93,65.42a3.41,3.41,0,0,0,5.13-2.94v-80a9.34,9.34,0,0,0-4.68-8.1L182.74,4A3.72,3.72,0,0,0,177.16,7.22Z" class="cls-10"></path><path d="M295.44,159.67a3.21,3.21,0,0,1-1.62-.44L181.89,93.81a9.22,9.22,0,0,1-4.55-7.92V7.22a3.55,3.55,0,0,1,3.55-3.54,3.48,3.48,0,0,1,1.76.48L294.08,68.5a9.18,9.18,0,0,1,4.58,7.94v80a3.17,3.17,0,0,1-1,2.31,3.26,3.26,0,0,1-2.24.91Z" class="cls-11"></path><path d="M180.89,3.87a3.35,3.35,0,0,1,1.67.45L294,68.66a9,9,0,0,1,4.5,7.78v80a3.05,3.05,0,0,1-3,3,3.09,3.09,0,0,1-1.53-.42L182,93.65a9,9,0,0,1-4.45-7.76V7.22a3.36,3.36,0,0,1,3.36-3.35m0-.38a3.73,3.73,0,0,0-3.73,3.73V85.89A9.35,9.35,0,0,0,181.79,94l111.93,65.42a3.4,3.4,0,0,0,5.13-2.94v-80a9.34,9.34,0,0,0-4.68-8.1L182.74,4a3.64,3.64,0,0,0-1.85-.51Z" class="cls-3"></path><path d="M185.06,16.17v24a8.11,8.11,0,0,0,4.05,7l16.25,9.37a2.69,2.69,0,0,0,4-2.33V28.4a8,8,0,0,0-4-6.94l-14.75-8.52A3.72,3.72,0,0,0,185.06,16.17Z" class="cls-12"></path><path d="M201.28,58.16a2.27,2.27,0,0,1-1.15-.32l-16.25-9.38a7.76,7.76,0,0,1-3.87-6.7v-24a3.34,3.34,0,0,1,5-2.9l14.75,8.52A7.64,7.64,0,0,1,203.61,30V55.83a2.27,2.27,0,0,1-.71,1.67,2.34,2.34,0,0,1-1.62.66Z" class="cls-13"></path><path d="M183.37,14.77a2.9,2.9,0,0,1,1.48.41L199.6,23.7A7.26,7.26,0,0,1,203.24,30V55.83a2,2,0,0,1-2,2,1.9,1.9,0,0,1-1-.27l-16.24-9.38a7.37,7.37,0,0,1-3.68-6.37v-24a3,3,0,0,1,3-3m0-.74a3.74,3.74,0,0,0-3.73,3.73v24a8.12,8.12,0,0,0,4.06,7l16.24,9.38a2.65,2.65,0,0,0,1.34.36,2.69,2.69,0,0,0,2.7-2.7V30a8,8,0,0,0-4-6.94l-14.76-8.51a3.64,3.64,0,0,0-1.85-.51Z" class="cls-3"></path><path d="M213.67,31.71V35a1.64,1.64,0,0,0,.81,1.42l75.84,43.78a1.62,1.62,0,0,0,2.44-1.41V75.49a1.63,1.63,0,0,0-.81-1.41L216.11,30.29A1.63,1.63,0,0,0,213.67,31.71Z" class="cls-3"></path><path d="M216.34,44.48l45.11,26a1.79,1.79,0,0,1,.89,1.55V75a1.78,1.78,0,0,1-2.67,1.54l-45.11-26a1.76,1.76,0,0,1-.89-1.54V46A1.78,1.78,0,0,1,216.34,44.48Z" class="cls-3"></path><path d="M212.55,68.2V97.59a2.47,2.47,0,0,0,1.24,2.15l68,39.29a2.49,2.49,0,0,0,3.73-2.15v-29.3a2.5,2.5,0,0,0-1.24-2.15l-68-39.38A2.49,2.49,0,0,0,212.55,68.2Z" class="cls-14"></path><path d="M204,69.85v29.4a2.49,2.49,0,0,0,1.24,2.15l68,39.29a2.48,2.48,0,0,0,3.72-2.15v-29.3a2.48,2.48,0,0,0-1.23-2.15l-68-39.38A2.48,2.48,0,0,0,204,69.85Z" class="cls-3"></path><path d="M225.22,81.11c-5.16-3-10-2.22-12.05,2.47-2.53,5.86.34,15.74,6.42,22.58l1.41-3.28c-4.12-4.8-6-11.59-4.29-15.65,1.42-3.3,4.86-3.84,8.5-1.74a14.92,14.92,0,0,1,2.66,2l1.41-3.28A21.18,21.18,0,0,0,225.22,81.11Z" class="cls-15"></path><path d="M229.28,84.21l-1.4,3.28c.22.21.44.42.66.65,4.68,4.82,7,12.22,5.1,16.54a4.69,4.69,0,0,1-.21.45l-.09.16c-1.35,2.38-3.94,3-6.82,1.81a10,10,0,0,1-1.36-.67l-.37-.22-.57-.37-.07-.06c-.37-.26-.74-.54-1.11-.85l-.14-.13-.4-.36-.15-.14-.53-.52c-.29-.3-.56-.6-.82-.9l-1.41,3.28c.27.3.54.6.82.89l.75.74.22.2.58.52.2.17a19.19,19.19,0,0,0,1.57,1.23l.12.08c.24.17.48.32.72.47l.08.06.49.29c.38.22.77.42,1.15.61l.83.36c4.39,1.74,8.31.64,10.07-3.45,2.63-6.12-.61-16.63-7.24-23.46C229.73,84.64,229.5,84.42,229.28,84.21Z" class="cls-16"></path><path d="M249.44,102.29v1a.76.76,0,0,1-1.15.66l-4.74-2.75a.75.75,0,0,1-.38-.66v-1a.77.77,0,0,1,1.16-.66l4.73,2.75A.75.75,0,0,1,249.44,102.29Z" class="cls-17"></path><path d="M264.41,115.93v1a.76.76,0,0,1-1.15.66l-19.72-11.38a.74.74,0,0,1-.38-.67v-1a.77.77,0,0,1,1.15-.67L264,115.26A.73.73,0,0,1,264.41,115.93Z" class="cls-18"></path><path d="M256.26,121.22v1a.76.76,0,0,1-1.15.66l-11.59-6.69a.76.76,0,0,1-.38-.67v-1a.77.77,0,0,1,1.15-.67l11.59,6.69A.79.79,0,0,1,256.26,121.22Z" class="cls-19"></path><path d="M261.34,119.16v1a.76.76,0,0,1-1.15.66l-16.66-9.61a.79.79,0,0,1-.39-.67v-1a.77.77,0,0,1,1.16-.66L261,118.49A.76.76,0,0,1,261.34,119.16Z" class="cls-20"></path><path d="M188.11,25.94v.9a.69.69,0,0,1-1,.6L182.8,25a.68.68,0,0,1-.34-.59v-.91a.69.69,0,0,1,1-.6l4.27,2.46A.7.7,0,0,1,188.11,25.94Z" class="cls-16"></path><path d="M201.61,38.16v.91a.69.69,0,0,1-1,.6L182.81,29.48a.68.68,0,0,1-.35-.6V28a.69.69,0,0,1,1-.6l17.78,10.19A.7.7,0,0,1,201.61,38.16Z" class="cls-16"></path><g class="cls-21"><path d="M194.29,43v.9a.69.69,0,0,1-1,.6l-10.44-6a.69.69,0,0,1-.35-.6V37a.7.7,0,0,1,1-.6l10.44,6A.68.68,0,0,1,194.29,43Z" class="cls-16"></path></g><path d="M198.86,41.08V42a.7.7,0,0,1-1,.6l-15-8.61a.68.68,0,0,1-.35-.6v-.9a.69.69,0,0,1,1-.6l15,8.61A.68.68,0,0,1,198.86,41.08Z" class="cls-16"></path><g class="cls-22"><polygon points="195.95 81.57 198 80.38 197.96 94.28 195.91 95.47 195.95 81.57" class="cls-23"></polygon><path d="M200.13,81.2v0h0v0h0v0h0v0h0v-.08h0v0h0l-6.37-12.69v0l0,0,0,0,0,0v0h0v0h0v0h0v0h-.33l-2,1.19a.16.16,0,0,1,.12,0h0a.24.24,0,0,1,.13,0,.44.44,0,0,1,.15.12h0a.64.64,0,0,1,.13.19L198,82.09a.64.64,0,0,1,.06.18h0a.38.38,0,0,1,0,.15h0a.21.21,0,0,1,0,.12h0l-.07.07L200,81.43a.17.17,0,0,0,.06-.06h0v0h0v-.06h0Z" class="cls-24"></path><path d="M191.35,69.09a.71.71,0,0,1,.28.31L198,82.09c.19.37,0,.68-.28.51l-1.77-1,0,13.9L186.6,90.1l0-13.9-1.71-1c-.31-.18-.47-.68-.28-.83l6.42-5.3A.24.24,0,0,1,191.35,69.09Z" class="cls-25"></path></g><path d="M295.19,169.69v19.85a3.64,3.64,0,0,1-5.46,3.15l-16.33-9.4v-13.6a3.63,3.63,0,0,0-1.82-3.16L223.78,139v-6.25a3.69,3.69,0,0,1,.48-1.83,3.65,3.65,0,0,1,5-1.32L261,147.91l32.33,18.62A3.62,3.62,0,0,1,295.19,169.69Z" class="cls-26"></path><path d="M275,103c-2.34-1.34-4.25-.25-4.25,2.42a9.42,9.42,0,0,0,4.25,7.32c2.33,1.37,4.24.28,4.24-2.41A9.35,9.35,0,0,0,275,103Z" class="cls-13"></path></g><g id="robot"><path d="M185.56,69.29a16.66,16.66,0,0,1-2.93,1.45,23.43,23.43,0,0,1-20.06-1.25,2,2,0,0,1-.66-3l1-1.36-1.15,1.52.11-.14a1.85,1.85,0,0,1,2.43-.48,19.64,19.64,0,0,0,16.84,1c5.22-2,7.62-6.82,8.54-9.37a1.85,1.85,0,0,1,2.23-1.16h0a2,2,0,0,1,1.41,2.65A20.13,20.13,0,0,1,185.56,69.29Z" class="cls-27"></path><path d="M200.28,54.73s-1.22,4.7-4.81,6.17-7.88-.24-8.31-3.48,1.72-6.83,1.72-6.83l4.44.95s-1.83,2.47-1.54,4.35,4.39,2.35,5.32-2Z" class="cls-28"></path><path d="M131.37,107.21c-8.84-5.1-8.84-13.48,0-18.62s23.29-5.13,32.13,0,8.84,13.52,0,18.62S140.2,112.31,131.37,107.21Z" class="cls-28"></path><path d="M132.85,99.87c-8.47-4.43-8.47-11.69,0-16.15s22.33-4.45,30.8,0,8.47,11.72,0,16.15S141.32,104.29,132.85,99.87Z" class="cls-28"></path><rect height="7.5" width="0.33" y="92.47" x="169.7" class="cls-28"></rect><path d="M170,91.44l-3.26-5.12L163.25,84A27.68,27.68,0,0,0,152.57,82v.33c.62,0,1.24,0,1.85,0a60.69,60.69,0,0,0-8.25.49,39.18,39.18,0,0,1,6.39-.54V82h0a38.85,38.85,0,0,0-19,4.92c-.39.23-.76.47-1.13.7l-7.28.88v9.87h0c.13,2.68,1.72,5.16,4.89,7s7.77,2.87,12.57,2.87a38.69,38.69,0,0,0,19-4.92c5.54-3.24,8.42-7.37,8.4-11.15A4.45,4.45,0,0,0,170,91.44Zm-32,16.22a25.05,25.05,0,0,1-2.89-.57C136.16,107.33,137.12,107.51,138.06,107.66Zm-3-.59-.12,0Z" class="cls-28"></path><path d="M146.6,101.69c-1.17,0-2.43,0-3.95-.08-5.56-.2-8.25-.89-12.5-3.19-3.06-1.66-4.76-4.2-4.79-7.14h0V31h0a12.92,12.92,0,0,1,2.09-6.46,17.87,17.87,0,0,1,6.21-6.09c5.53-3.24,12.65-3.51,18.89-3.51A25.39,25.39,0,0,1,165,18.46a11.32,11.32,0,0,1,3.14,2.62l-.26.2c.23.32.44.61.63.91l.28-.17a7.09,7.09,0,0,1,.94,2.64l0,.11h0v0a7.18,7.18,0,0,1,.05,1.13V90.49h0c-.09,3.67-2.72,6.41-8.28,8.64A38.23,38.23,0,0,1,146.6,101.69Z" class="cls-29"></path><path d="M152.55,15.11a25.22,25.22,0,0,1,12.39,3.51A11.23,11.23,0,0,1,168,21.19l-.26.2c.23.31.43.61.62.9l.28-.17a6.91,6.91,0,0,1,.92,2.57v.06h0v.08a6.87,6.87,0,0,1,0,1.11v.1l0,0v64h0v.42c-.08,3.59-2.68,6.28-8.16,8.48a38.06,38.06,0,0,1-14.88,2.54c-1.17,0-2.42,0-3.95-.08-5.52-.2-8.19-.88-12.41-3.17-3-1.62-4.66-4.1-4.69-7h0V31h0a12.81,12.81,0,0,1,2-6.36,17.74,17.74,0,0,1,6.16-6c5.48-3.22,12.58-3.49,18.79-3.49h0m0-.37h0c-6.44,0-13.46.3-19,3.54s-8.41,8.93-8.39,12.71l0-1.55v63l0-1.16c0,2.78,1.56,5.48,4.89,7.29,4.31,2.34,7.09,3,12.57,3.21,1.36,0,2.68.09,4,.09a38.4,38.4,0,0,0,15-2.58c5.82-2.33,8.31-5.19,8.39-8.81v-.43a3.08,3.08,0,0,1,0,.43l0,7.73V26s0,0,0,0a6.4,6.4,0,0,0,0-1.16l.07-.16H170c-.35-2.42-1.93-4.65-4.82-6.34a25.51,25.51,0,0,0-12.58-3.56Zm16.14,7.35c-.18-.28-.39-.59-.63-.92a7.9,7.9,0,0,1,.63.92Z" class="cls-3"></path><g class="cls-30"><path d="M169.6,91.67V28.61s-4-6.38-10.75-5.7-7.9,4.56-7.9,4.56v70.2s.09,1.71,1.19,2.3c3.35,1.8,8.48,1,16.31-5.15C169.6,93.92,169.09,93.21,169.6,91.67Z" class="cls-31"></path></g><path d="M135.77,85.3c-1.42,3.19-4.24,5-6.28,4.12s-2.55-4.24-1.12-7.43,4.23-5,6.28-4.12S137.2,82.11,135.77,85.3Z" class="cls-32"></path><path d="M122.7,91.15a16.75,16.75,0,0,0-.63,3.21,23.44,23.44,0,0,0,6.51,19,2,2,0,0,0,3-.15l1-1.35-1.17,1.51.12-.14a1.86,1.86,0,0,0-.19-2.48,19.64,19.64,0,0,1-5.38-16c.52-5.55,4.57-9.15,6.78-10.72a1.84,1.84,0,0,0,.53-2.45h0a2,2,0,0,0-2.93-.66A20.14,20.14,0,0,0,122.7,91.15Z" class="cls-16"></path><path d="M141,112s-4-2.69-7.69-1.39-5.71,5.43-3.87,8.13,5.83,3.94,5.83,3.94L137.9,119s-3-.61-4.05-2.21,1.7-4.68,5.29-2.07Z" class="cls-28"></path><path d="M149.93,76.33h-5a1.82,1.82,0,0,1-1.81-1.81h0a1.82,1.82,0,0,1,1.81-1.81h5a1.82,1.82,0,0,1,1.81,1.81h0A1.81,1.81,0,0,1,149.93,76.33Z" class="cls-3"></path><path d="M163.48,76h-5a1.81,1.81,0,0,1-1.81-1.81h0a1.81,1.81,0,0,1,1.81-1.8h5a1.81,1.81,0,0,1,1.81,1.8h0A1.81,1.81,0,0,1,163.48,76Z" class="cls-3"></path></g><g id="boy"><path d="M191.88,245.59s3.74-4.37,6.85-4,2.33,5.83-3.42,10S179.19,256.12,191.88,245.59Z" class="cls-33"></path><path d="M171.83,237.94s2.85-3.2,5.22-2.9,1.77,4.28-2.61,7.32S162.15,245.67,171.83,237.94Z" class="cls-33"></path><path d="M163.89,170.4s-7.82,4.71-2.4,25.49,5.94,22.43,6.15,25.74-.56,21.3-.56,21.3,2.2,2.14,6.54-.37c0,0,3.58-22.24,3.92-28.2s-1.4-36.21-1.4-36.21Z" class="cls-34"></path><path d="M194.06,252.21a4.16,4.16,0,0,1-1.81,1c-1.38.41-3.6.55-6.87-.7l-.42-.17s3.09-27.94-.13-36.92c-1.41-3.95-18.21-25.41-17.14-36.95a9,9,0,0,1,.23-1.41c2.74-11.1,19.18-.94,19.18-.94s.13.51.35,1.41c1.57,6.35,7.93,32.2,8.64,37.53C196.65,219.26,194,248.81,194.06,252.21Z" class="cls-15"></path><path d="M192,227.44c-1.69,6.28-4.94,18.57-6.66,25.06l-.42-.17s3.09-27.94-.13-36.92c-1.41-3.95-18.21-25.41-17.14-36.95,5.17-6.2,8.45-.31,8.45-.31s3.45,15.17,9.7,23.31S194.4,218.65,192,227.44Z" class="cls-35"></path><path d="M194.06,252.21a4.16,4.16,0,0,1-1.81,1c.66-7.1,2.57-28.21,2.85-34.55.33-7.66-9.39-37.84-9.39-37.84a6.73,6.73,0,0,1,1.74-3.29c1.57,6.35,7.93,32.2,8.64,37.53C196.65,219.26,194,248.81,194.06,252.21Z" class="cls-36"></path><path d="M163.67,136.79a1.75,1.75,0,0,0-3.26-.4c-3.59,7.06-9.83,20.82-6.43,25.31a20.41,20.41,0,0,0,10.42,7.5s3.78-18.87,1.88-23.43A61.47,61.47,0,0,1,163.67,136.79Z" class="cls-37"></path><path d="M181.39,123.76c-.32,2.41-1.44,4.87-3.88,5.37l-.06,0v7s-5.12,1.08-6.74-.73c-1.28-1.44-1.12-6.14-.73-9.51-3.67-4.59-1.67-12.87.26-14.63,2.22-2,8.92-2.78,11.15,1.24A80.33,80.33,0,0,1,181.39,123.76Z" class="cls-38"></path><path d="M192.13,137.54s-3.62-.66-4.21-3.37-2.54-3.24-1.08-3.5,2.18,1.58,2.18,1.58.56-3.3-1.09-4.76,2.49,1,3.43,1.67,2-.46,3.14,2S195.3,137.74,192.13,137.54Z" class="cls-38"></path><path d="M199.27,154.65a8.91,8.91,0,0,1-.18,1.95,19.19,19.19,0,0,1-1.06,3.46,34.15,34.15,0,0,1-2.05,4.18c-10.45,2.18-7.39-23.89-6.44-26.47s6.22-2.1,6.22-2.1-.82,0,.47,2.41C197.38,140.25,199.15,150.74,199.27,154.65Z" class="cls-16"></path><path d="M199.09,156.6a19.19,19.19,0,0,1-1.06,3.46c-1.18-5.74-6-21.11-6-21.11a68.48,68.48,0,0,1,5.2,9.41A29.82,29.82,0,0,1,199.09,156.6Z" class="cls-27"></path><path d="M185.49,181.15s-3.51,8.7-25.58-2.19L159,139.82a5.59,5.59,0,0,1,2.9-4.68c3.7-2,10.4-4.84,15.71-2.35,0,0,14.09,2.72,15.6,7.17s4.64,15,4.64,15,.58,7-1.86,9.27-4.86-.33-4.86-.33l-4.94-8.65,1.66,22.33Z" class="cls-16"></path><path d="M196,164.24c-2.44,2.22-4.87-.33-4.87-.33l-4.94-8.65,0,.44,1.63,21.9-2.12,3.21-.22.34s-1.44,3.57-8.28,3.27c-3.84-.16-9.37-1.54-17.3-5.46L159,139.81a5.59,5.59,0,0,1,2.9-4.67,30.61,30.61,0,0,1,5.56-2.41c.37-.12.74-.22,1.12-.32a13.34,13.34,0,0,1,9,.38s14.09,2.72,15.6,7.17c.62,1.86,1.53,4.77,2.38,7.54,1.19,3.88,2.26,7.47,2.26,7.47S198.41,162,196,164.24Z" class="cls-39"></path><path d="M183.06,111.8s-1.61,5.36-3,6.07a2,2,0,0,0-1.13,2.08s-.69-1.45-1.31-1.45-.91,3.23,0,4.19l.91,1s-1.94,3.63-4.52,4.12-6.29-.89-8.63-3.23-2.64-10.49,1.42-12.75c0,0-.1-4.76,3.18-5.89s8.79-1.36,10-2.09,1-1.46,1-1.46a3.39,3.39,0,0,1-.78,3,3.74,3.74,0,0,0,2.42-2.06l.66-1.65s1,4.6-.5,6.54a4.74,4.74,0,0,0,1.61-1.45S183.52,110.41,183.06,111.8Z" class="cls-28"></path><path d="M177.21,184.42c-3.84-.16-9.37-1.54-17.3-5.46L159,139.81a5.59,5.59,0,0,1,2.9-4.67,30.13,30.13,0,0,1,6.68-2.73c5.19,3.85,5.37,13.05,4.26,21.81C171.55,164.26,175.2,177.93,177.21,184.42Z" class="cls-40"></path><path d="M187.83,177.6l-2.12,3.21c-.91-5-1.85-11.53-1.28-15.3,1-6.63-.17-17.89-.17-17.89s.94,4,1.94,8.08Z" class="cls-41"></path><path d="M195.57,148.11s-1.9-4-3.53-7.74-10.47-4.72-15.31-6.54c-2.56-1-6.32-1.14-9.29-1.1.37-.12.74-.22,1.12-.32a13.34,13.34,0,0,1,9,.38s14.09,2.72,15.6,7.17c.62,1.86,1.53,4.77,2.38,7.54Z" class="cls-42"></path><path d="M177.51,129.13l-.06,0v2.06a9.19,9.19,0,0,1-2.14-2.62A5.86,5.86,0,0,0,177.51,129.13Z" class="cls-43"></path></g><g id="girl"><path d="M87,127.57s-1.62,5,3.8,25.81,1.44,30.23,1.65,33.54-1.3,10.68-1.3,10.68S93,201.45,97.3,199c0,0,6.92-25.75,7.26-31.7s-5.14-34.36-5.14-34.36Z" class="cls-33"></path><path d="M118.35,200.7s3.16-3.69,5.79-3.34,2,4.93-2.9,8.44S107.62,209.61,118.35,200.7Z" class="cls-33"></path><path d="M96.37,194.45s2.42-2.71,4.42-2.45,1.5,3.61-2.21,6.19S88.19,201,96.37,194.45Z" class="cls-33"></path><path d="M120.47,201.11c0,.1,0,.16,0,.16s-.92,9.27-7.32,6.19c0,0,0-33.29-2-37.17s-23.38-29.57-20-40.48c3-9.54,16.13-.48,19.38,1.95.47.35.73.56.73.56s9.89,28.12,11.35,34.09S120.75,197.14,120.47,201.11Z" class="cls-28"></path><path d="M120.47,201.11c.11-2.19,1.31-26,.39-31.86-1-6.13-13.58-35.34-13.58-35.34l3.29-2.15c.47.35.73.56.73.56s9.89,28.12,11.35,34.09S120.75,197.14,120.47,201.11Z" class="cls-44"></path><path d="M111.21,77.71c-.32,2.42-1.46,4.91-3.93,5.38v7s-4.06.27-5.68-1.55c-1.28-1.44-2.47-5.43-1.79-8.69-3.67-4.59-1.68-12.86.26-14.62,2.22-2,8.91-2.79,11.14,1.24A80.33,80.33,0,0,1,111.21,77.71Z" class="cls-38"></path><path d="M138.83,92.67l8.06,4.79a2.87,2.87,0,0,1,1.26,3.21l-4.07,14.71-9.2-5.18A3,3,0,0,1,133.5,107l3.24-13.37A1.41,1.41,0,0,1,138.83,92.67Z" class="cls-13"></path><path d="M136.47,116s-.11-3.68,2.41-4.83,2.63-3.17,3.19-1.81-1.09,2.47-1.09,2.47,3.35-.15,4.42-2.07-.44,2.64-.9,3.71.88,1.86-1.32,3.49S137,119.09,136.47,116Z" class="cls-38"></path><path d="M139.46,118.25s-7.63,3.84-14.58,4.48c-5.36.5-9.54-6.74-12.68-11.54-.1-.14-.19-.29-.28-.43l-1,11.61.49,10.55V133s-5,10.54-27.06-.35l0-39s8.39-12.74,16.15-9.09,14.83,2.06,17,11.54c1.36,5.93,5.49,15.79,7.33,17.06,2.47,1.69,12.18.77,12.18.77S138.22,113.81,139.46,118.25Z" class="cls-13"></path><path d="M139.46,118.25s-7.63,3.84-14.58,4.48c-5.36.5-9.54-6.74-12.68-11.54-.1-.14-.19-.29-.28-.43l-.06.68-.93,10.93.49,10.55V133a5.45,5.45,0,0,1-.69,1c-1.66,2-6.64,5.8-18.58,1.88a60,60,0,0,1-7.79-3.24l0-39s8.39-12.74,16.15-9.09c.47.22.93.42,1.39.6,7.2,2.9,13.57,2,15.62,10.94,1.36,5.93,5.49,15.79,7.33,17.06a3.48,3.48,0,0,0,.82.39c3.3,1.15,11.36.38,11.36.38s.93-.11,2,3C139.19,117.36,139.33,117.78,139.46,118.25Z" class="cls-15"></path><path d="M110.74,134.05c-1.66,2-6.64,5.8-18.58,1.88,1.17-12.91,4.91-50.78,8.35-49.3,4.14,1.78,4.26,1.74,7.72,8.38s-4.72,16.22-3.33,27.75C105.66,129,108.4,132.33,110.74,134.05Z" class="cls-45"></path><g class="cls-46"><path d="M125.7,113.56c-2-.23-2.26-1.38-4.2-4.26-2.66-4-4.68-15.55-7.18-17.92s-11.78-4.75-11.78-4.75-1.77-.64-.61-1.46c7.2,2.9,13.57,2,15.62,10.94,1.36,5.93,5.49,15.79,7.33,17.06A3.48,3.48,0,0,0,125.7,113.56Z" class="cls-16"></path></g><path d="M112.49,67.78c-2.45,3.63-4.22,3.09-5.21,5.17a6.08,6.08,0,0,0-.52,1,1.88,1.88,0,0,0-.14,1.36c-.09-.15-1.3-2-1.42.81a3.41,3.41,0,0,0,2.08,3.64s-3.18.43-2.69,7S114.8,137,88.37,139.33c-8.88.78-13.88-2.34-16.37-7.1a17.64,17.64,0,0,1-1.63-4.83c-1.76-9.25,2.28-21.08,5.84-25,6.36-7.09,12.16-15.73,11.55-25.91-.47-7.73,7-20.36,18.21-18.38a17.71,17.71,0,0,1,6.74,2.81A6.3,6.3,0,0,1,112.49,67.78Z" class="cls-47"></path><path d="M111.92,110.76l-1,11.61.49,10.55c-2.35-3.1-2.83-11.78-3.15-18.78a48,48,0,0,1,2.26-16.3c-.81,4.55.63,10.16,1.67,13.35C112.1,111.05,112,110.9,111.92,110.76Z" class="cls-28"></path><path d="M139.46,118.25s-7.63,3.84-14.58,4.48c-5.36.5-9.54-6.74-12.68-11.54-.1-.14-.19-.29-.28-.43l-.06.68a40.22,40.22,0,0,1-1.51-9.08s5.4,14.14,14.14,16.78A17.67,17.67,0,0,0,139.07,117C139.19,117.36,139.33,117.78,139.46,118.25Z" class="cls-48"></path><path d="M104.59,86.74c.49,6.58,10.21,50.28-16.22,52.59-8.88.78-13.88-2.34-16.37-7.1,3.61.33,8.14-.46,13.67-3.44,17.6-9.48,13.24-49.43,15.87-53.27a4.1,4.1,0,0,1,5.22-1.6,1.88,1.88,0,0,0-.14,1.36c-.09-.15-1.3-2-1.42.81a3.41,3.41,0,0,0,2.08,3.64S104.1,80.16,104.59,86.74Z" class="cls-49"></path><path d="M101.45,69.06s-5.06.2-9.29,21.06-3,31.05-17.62,35.42c0,0,8.55-2.93,11.3-20.68S90.6,75.23,101.45,69.06Z" class="cls-50"></path><path d="M106,58.07c-3.73.59-12.18,2.82-15.15,11-3.85,10.62,0,15.49-6.43,24.6s-12,13.94-13.4,26.05c-.37,3.06-.55,5.6-.62,7.69-1.76-9.25,2.28-21.08,5.84-25,6.36-7.09,12.16-15.73,11.55-25.91C87.29,68.72,94.75,56.09,106,58.07Z" class="cls-51"></path><path d="M107.28,83.13v2.79a8.8,8.8,0,0,1-1.66-3.37A2.93,2.93,0,0,0,107.28,83.13Z" class="cls-43"></path><path d="M138.34,95.63l7,4a.21.21,0,0,1,.1.25l-1,3.59a.22.22,0,0,1-.44-.05c0-1.42-.2-3.13-1.06-3.41-1.52-.48-3,1.51-4.24,0-1-1.21-.83-3.37-.72-4.18A.22.22,0,0,1,138.34,95.63Z" class="cls-16"></path><path d="M136.52,103.42l6.76,3.62a.43.43,0,0,0,.62-.24l.08-.25a.4.4,0,0,0-.21-.48L137,102.59a.43.43,0,0,0-.61.25l0,.12A.39.39,0,0,0,136.52,103.42Z" class="cls-3"></path><path d="M135.83,105.52l6.76,3.62a.43.43,0,0,0,.62-.24l.08-.26a.39.39,0,0,0-.21-.47l-6.81-3.48a.42.42,0,0,0-.61.25l0,.11A.4.4,0,0,0,135.83,105.52Z" class="cls-3"></path></g><g id="table"><path d="M216.05,213.56v5.91a4.08,4.08,0,0,0,2,3.53l17.58,10.15a5.15,5.15,0,0,0,5.15,0l65.77-38a4.07,4.07,0,0,0,2-3.53v-6.19s-22.95.6-27.79,2.78S216.05,213.56,216.05,213.56Z" class="cls-52"></path><path d="M217.1,215.36l17,9.83a8.35,8.35,0,0,0,8.36,0l64.89-37.47a2.63,2.63,0,0,0,0-4.55l-14.68-8.47a11.49,11.49,0,0,0-11.46,0l-64.07,37A2.11,2.11,0,0,0,217.1,215.36Z" class="cls-53"></path><path d="M217.1,215.36l17,9.83a8.35,8.35,0,0,0,8.36,0l64.89-37.47a2.63,2.63,0,0,0,0-4.55l-14.68-8.47a11.49,11.49,0,0,0-11.46,0l-64.07,37A2.11,2.11,0,0,0,217.1,215.36Z" class="cls-16"></path><polygon points="281.71 180.35 281.7 178.9 281.7 180.24 281.71 181.69 281.71 180.35" class="cls-54"></polygon><polygon points="295.05 182.09 293.29 183.12 293.28 184.47 295.05 183.44 295.05 182.09" class="cls-55"></polygon><polygon points="274.5 183.12 272.72 182.09 272.71 183.44 274.49 184.47 274.5 183.12" class="cls-56"></polygon><path d="M278.27,187.78l0-.15.05-.17.06-.14c0-.06,0-.12.08-.17l.08-.13.13-.2.1-.11a2,2,0,0,1,.24-.26l.09-.09.17-.15.16-.12.21-.14.21-.14a4.53,4.53,0,0,1,.54-.27l.16-.07.44-.17.17-.05.29-.09.22-.06L282,185l.21,0,.65-.09h.2l.38,0h1.11l.26,0,.28,0,.25,0,.3.06.24,0,.35.09.2,0a6.26,6.26,0,0,1,.61.21l.28.12.15.06.42.22a2.86,2.86,0,0,1,1.67,2.34v-1.34a2.82,2.82,0,0,0-1.67-2.34,4.13,4.13,0,0,0-.42-.22l-.14-.06-.26-.12h0l-.61-.2-.05,0-.14,0-.36-.09-.09,0-.14,0-.3,0-.12,0-.14,0-.28,0h-1.36l-.39,0h-.2c-.22,0-.43.05-.65.09h0l-.18,0-.31.07-.23.06-.29.08-.06,0-.1,0-.45.17-.16.07a4.39,4.39,0,0,0-.53.27l-.07,0a.78.78,0,0,0-.15.1l-.2.13-.16.13-.18.14,0,0-.06.06a2.84,2.84,0,0,0-.24.26l-.05.06,0,.06-.14.19s0,.06-.05.09a.08.08,0,0,0,0,0l-.09.18,0,.1s0,0,0,0a1,1,0,0,0-.05.16s0,.08,0,.12v0c0,.06,0,.12,0,.18s0,.08,0,.12v1.39a1,1,0,0,1,0-.17A.88.88,0,0,1,278.27,187.78Z" class="cls-57"></path><path d="M295,188a1.84,1.84,0,0,1-.09.25,1.11,1.11,0,0,1-.07.16,1,1,0,0,1-.07.15,1.3,1.3,0,0,1-.08.17l-.08.14-.12.19-.09.14-.14.19-.09.12a3.27,3.27,0,0,1-.3.35l0,0-.29.3-.25.22v1.34l.21-.18,0,0,.29-.29.05,0,.29-.34,0,0,.07-.1.14-.19.09-.13.11-.19,0-.06.05-.09a1.19,1.19,0,0,1,.08-.16l.07-.16.07-.16,0-.07.06-.17h2.51V188Z" class="cls-58"></path><path d="M274.53,191.8v-1.34a5.5,5.5,0,0,1-1.75-2.42h-2.5v1.35h2.51A5.59,5.59,0,0,0,274.53,191.8Z" class="cls-59"></path><path d="M290.28,192.23q-.45.18-.93.33l-.53.15-.5.14-.55.11-.51.11-1.15.17v1.34c.39,0,.77-.1,1.15-.17h.05c.16,0,.31-.06.46-.09l.55-.12.5-.14c.18-.05.36-.09.53-.15l.06,0c.29-.09.58-.19.86-.3l1.78,1,3.05-1.77v-1.34l-3.05,1.77Z" class="cls-60"></path><path d="M281.78,193.23l-.8-.11-.58-.1-.49-.1-.67-.17-.53-.14-.22-.07a8.31,8.31,0,0,1-.88-.31h0l-1.77,1-3.07-1.77v1.34l3.07,1.78,1.77-1c.29.11.58.21.88.3l.23.07.23.08.29.07.67.16.22.06.28,0,.57.1.26,0,.55.07h0V196h4.33v-1.34h-4.33Z" class="cls-61"></path><path d="M292.06,193.26l-1.78-1a16,16,0,0,1-4.17,1v1.46h-4.33v-1.46a16,16,0,0,1-4.17-1l-1.77,1-3.07-1.77,1.77-1a5.56,5.56,0,0,1-1.75-2.42h-2.5l0-2.5h2.51a5.53,5.53,0,0,1,1.72-2.42l-1.78-1,3-1.77,1.78,1a16.34,16.34,0,0,1,4.16-1V178.9H286v1.45a16.59,16.59,0,0,1,4.18,1l1.76-1,3.07,1.77-1.76,1a5.67,5.67,0,0,1,1.74,2.42h2.5l0,2.5H295a5.53,5.53,0,0,1-1.71,2.42l1.78,1Zm-12.15-4.14a8.85,8.85,0,0,0,8,0c2.21-1.29,2.2-3.37,0-4.65a8.86,8.86,0,0,0-8,0c-2.21,1.28-2.2,3.36,0,4.65" class="cls-62"></path><polygon points="262.57 192.46 262.57 191.34 262.56 192.38 262.57 193.5 262.57 192.46" class="cls-63"></polygon><polygon points="272.93 193.82 271.56 194.62 271.55 195.66 272.92 194.86 272.93 193.82" class="cls-64"></polygon><polygon points="256.97 194.62 255.59 193.82 255.59 194.86 256.97 195.66 256.97 194.62" class="cls-65"></polygon><path d="M259.9,198.23l0-.12a.93.93,0,0,1,0-.13s0-.07,0-.11a.83.83,0,0,1,.07-.13.53.53,0,0,1,.06-.1,1.3,1.3,0,0,1,.1-.15l.07-.09a1.8,1.8,0,0,1,.19-.2.23.23,0,0,1,.07-.07l.14-.12.12-.09.16-.11.16-.11.42-.21.12-.05.35-.13.13,0,.22-.07.18,0,.24-.05.17,0,.5-.07h.15l.3,0H265l.22,0,.2,0,.23,0,.18,0,.28.07.15,0,.47.16.22.1.12,0,.32.17a2.2,2.2,0,0,1,1.3,1.82v-1a2.2,2.2,0,0,0-1.3-1.82l-.32-.17-.11-.05-.2-.08h0l-.47-.16h0l-.11,0-.27-.07-.08,0-.11,0-.23,0h-.2l-.22,0h-1.06l-.29,0h-.16a4,4,0,0,0-.5.07h0l-.14,0-.24.05-.17,0-.23.06-.05,0-.08,0-.34.13-.13,0-.41.21-.06,0-.11.08-.16.1-.12.1-.14.11,0,0,0,0a1.8,1.8,0,0,0-.19.2s0,0,0,0l0,0-.1.16-.05.06v0a.83.83,0,0,0-.07.13l0,.08v0a.65.65,0,0,0,0,.13l0,.09v0a.71.71,0,0,0,0,.14.28.28,0,0,0,0,.09v1.08s0-.08,0-.12S259.89,198.27,259.9,198.23Z" class="cls-66"></path><path d="M272.92,198.44l-.07.18-.06.13a.61.61,0,0,1-.05.12l-.07.13-.06.11-.09.15-.07.1-.11.15-.07.1a2.85,2.85,0,0,1-.23.26l0,0-.23.23-.19.17v1a1.07,1.07,0,0,0,.16-.14l0,0L272,201l0,0,.23-.27,0,0,0-.08.11-.15a.61.61,0,0,1,.07-.1l.09-.15,0,0,0-.07.06-.13.06-.12a.61.61,0,0,0,0-.12l0-.06,0-.13h1.95v-1h-1.94Z" class="cls-67"></path><path d="M257,201.35v-1a4.45,4.45,0,0,1-1.35-1.87h-1.94v1h2A4.23,4.23,0,0,0,257,201.35Z" class="cls-68"></path><path d="M269.22,201.69c-.23.09-.47.17-.72.25l-.41.11-.39.11-.42.09-.4.08a8.67,8.67,0,0,1-.89.13v1l.9-.13h0l.36-.08c.14,0,.28,0,.42-.09l.39-.1.41-.12h.05c.23-.08.45-.15.67-.24l1.38.8,2.36-1.38v-1l-2.37,1.37Z" class="cls-69"></path><path d="M262.63,202.46l-.63-.09-.44-.07-.39-.08-.52-.13-.4-.11-.18-.06-.68-.23h0l-1.38.79-2.38-1.37v1l2.38,1.38,1.37-.8.69.24.17.05.18.06.23,0,.52.13.17,0,.21,0,.45.08.2,0,.42.05h0v1.12H266v-1h-3.35Z" class="cls-70"></path><path d="M270.6,202.48l-1.38-.79a12.41,12.41,0,0,1-3.23.77v1.13h-3.36v-1.13a12.48,12.48,0,0,1-3.24-.77l-1.38.79-2.38-1.37,1.37-.8a4.42,4.42,0,0,1-1.35-1.88h-1.94v-1.94h1.94a4.34,4.34,0,0,1,1.33-1.88l-1.38-.79,2.37-1.38,1.38.8a12.83,12.83,0,0,1,3.23-.78v-1.13h3.35v1.13a13,13,0,0,1,3.24.78l1.37-.8,2.39,1.38-1.38.79a4.42,4.42,0,0,1,1.36,1.88h1.94v1.94h-1.94a4.34,4.34,0,0,1-1.33,1.88l1.38.8Zm-9.42-3.21a6.88,6.88,0,0,0,6.22,0c1.72-1,1.71-2.61,0-3.61a6.82,6.82,0,0,0-6.22,0c-1.72,1-1.71,2.61,0,3.61" class="cls-71"></path><polygon points="244.68 204.13 244.68 203 244.67 204.04 244.68 205.17 244.68 204.13" class="cls-72"></polygon><polygon points="255.03 205.48 253.66 206.28 253.66 207.32 255.03 206.52 255.03 205.48" class="cls-73"></polygon><polygon points="239.08 206.28 237.7 205.48 237.7 206.52 239.08 207.32 239.08 206.28" class="cls-74"></polygon><path d="M242,209.89l0-.11a.74.74,0,0,1,0-.14l0-.1.06-.14.06-.1.11-.15.07-.09a1.8,1.8,0,0,1,.19-.2l.07-.07.13-.11.13-.1.16-.11.16-.1a2.74,2.74,0,0,1,.42-.21l.12-.06.35-.13.13,0,.22-.07.18,0,.24-.06.16,0,.51-.07h.15l.3,0h.86l.2,0,.22,0,.2,0,.23,0,.18,0,.28.06.15,0,.47.16.22.1.12,0,.32.17a2.19,2.19,0,0,1,1.3,1.81v-1a2.2,2.2,0,0,0-1.3-1.82l-.32-.17-.12-.05-.19-.08h0l-.47-.16h0l-.11,0-.28-.07h-.07l-.11,0-.23,0-.09,0h-.11l-.22,0h-.2l-.23,0H246l-.3,0h-.15l-.5.07h0l-.14,0-.24.05-.18,0-.22.07h-.05l-.08,0-.35.13-.12.05-.42.21,0,0-.11.07-.16.11-.13.09-.13.12,0,0a.1.1,0,0,0,0,0,1.8,1.8,0,0,0-.19.2l0,0,0,.05-.11.15,0,.06a.08.08,0,0,0,0,0,.83.83,0,0,0-.07.13.59.59,0,0,1,0,.08v0a.93.93,0,0,0,0,.13l0,.09v0s0,.09,0,.13,0,.06,0,.09v1.09s0-.09,0-.13S242,209.93,242,209.89Z" class="cls-75"></path><path d="M255,210.1c0,.06-.05.12-.07.19l-.06.12a.61.61,0,0,1-.05.12.83.83,0,0,1-.07.13l-.06.11-.09.15-.07.1-.11.15-.07.1-.23.27,0,0-.22.23-.19.17V213l.16-.15,0,0a2.5,2.5,0,0,0,.23-.23l0,0,.23-.27v0l.06-.08a1.71,1.71,0,0,0,.11-.14l.07-.11.09-.14s0,0,0,0a.25.25,0,0,0,0-.07l.06-.13.06-.12a.61.61,0,0,0,0-.12l0-.06,0-.13h2v-1Z" class="cls-76"></path><path d="M239.11,213V212a4.39,4.39,0,0,1-1.35-1.87h-1.94v1h1.95A4.31,4.31,0,0,0,239.11,213Z" class="cls-77"></path><path d="M251.33,213.35c-.23.09-.47.17-.72.25l-.41.12-.39.1c-.14,0-.28.06-.42.09l-.4.09-.89.13v1l.9-.13h0l.36-.07.42-.09.39-.11.41-.12h0c.22-.07.45-.15.67-.24l1.38.8,2.36-1.38v-1l-2.37,1.37Z" class="cls-78"></path><path d="M244.74,214.13l-.63-.09-.44-.08-.39-.08-.52-.13-.4-.11-.18,0c-.23-.08-.46-.15-.68-.24h0l-1.38.8-2.38-1.38v1l2.38,1.38,1.37-.8a7,7,0,0,0,.69.24l.17.05.18.06.23.06.52.12.17,0,.21,0,.45.08.2,0,.42.06h0v1.12h3.36v-1h-3.36Z" class="cls-79"></path><path d="M252.71,214.14l-1.38-.79a12.51,12.51,0,0,1-3.23.77v1.13h-3.36v-1.13a12.48,12.48,0,0,1-3.24-.77l-1.38.8-2.38-1.38,1.37-.8a4.31,4.31,0,0,1-1.35-1.87h-1.94l0-1.95h1.95a4.25,4.25,0,0,1,1.33-1.87l-1.38-.8,2.37-1.38,1.38.8a12.83,12.83,0,0,1,3.23-.78V203H248v1.12a13,13,0,0,1,3.24.78l1.37-.8,2.39,1.38-1.38.8a4.34,4.34,0,0,1,1.36,1.87H257v1.95H255A4.25,4.25,0,0,1,253.7,212l1.38.8Zm-9.42-3.21a6.85,6.85,0,0,0,6.22,0c1.71-1,1.71-2.61,0-3.61a6.91,6.91,0,0,0-6.23,0c-1.71,1-1.7,2.61,0,3.61" class="cls-80"></path><polygon points="234.1 206.03 234.09 204.91 234.09 205.95 234.09 207.08 234.1 206.03" class="cls-81"></polygon><polygon points="244.45 207.39 243.08 208.19 243.08 209.23 244.45 208.43 244.45 207.39" class="cls-82"></polygon><polygon points="228.5 208.19 227.12 207.39 227.12 208.43 228.5 209.23 228.5 208.19" class="cls-83"></polygon><path d="M231.43,211.8a.36.36,0,0,1,0-.11.74.74,0,0,0,0-.14.47.47,0,0,1,0-.1l.06-.14.06-.1.1-.15.08-.09a1.12,1.12,0,0,1,.18-.2l.07-.07.14-.11.12-.1.16-.11.17-.1a3.17,3.17,0,0,1,.41-.21l.13-.06.35-.13.12,0,.23-.07.17,0,.24-.06.17,0,.5-.07h.16l.3,0h.85l.21,0,.22,0,.19,0,.24,0,.18,0,.27.06.15,0,.48.16.22.1.11.05.32.17a2.17,2.17,0,0,1,1.3,1.81v-1a2.22,2.22,0,0,0-1.3-1.82l-.33-.17-.11-.05-.2-.08h0l-.47-.16h0l-.11,0-.28-.07h-.07l-.11,0-.23,0-.1,0h-.1l-.22,0h-1.06l-.3,0H235l-.5.07h0l-.14,0-.25.05-.17,0-.23.07h-.05l-.07,0-.35.13-.13.05-.41.21-.05,0-.12.07-.16.11-.12.09-.14.12,0,0,0,0a1.12,1.12,0,0,0-.18.2l-.05,0a.13.13,0,0,1,0,.05l-.1.15a.43.43,0,0,0,0,.07l0,0-.06.14a.59.59,0,0,0,0,.08v0a.5.5,0,0,1,0,.13s0,.06,0,.09v0a.59.59,0,0,0,0,.14s0,.06,0,.09v1.08a.53.53,0,0,1,0-.13A.59.59,0,0,1,231.43,211.8Z" class="cls-84"></path><path d="M244.44,212c0,.06,0,.12-.07.19a.61.61,0,0,1-.05.12l-.06.12-.06.13-.06.11-.09.15a.61.61,0,0,0-.07.1l-.11.15-.08.1-.22.27,0,0c-.07.08-.15.15-.23.23a1.54,1.54,0,0,1-.19.17v1.05l.16-.15,0,0,.23-.23,0,0,.23-.27,0,0,.06-.08.1-.14.07-.11.09-.14,0,0a.16.16,0,0,1,0-.07l.06-.13.06-.12.05-.12a.14.14,0,0,0,0-.06.69.69,0,0,0,.05-.13h1.95v-1Z" class="cls-85"></path><path d="M228.53,214.93v-1.05a4.23,4.23,0,0,1-1.35-1.87h-2v1h2A4.31,4.31,0,0,0,228.53,214.93Z" class="cls-86"></path><path d="M240.75,215.26l-.72.25-.41.12-.39.1c-.14,0-.28.06-.43.09l-.39.09-.9.13v1l.89-.13h0l.35-.07.43-.09.39-.11c.13,0,.27-.07.4-.12h0c.23-.07.45-.15.67-.24l1.38.8,2.37-1.38v-1l-2.36,1.38Z" class="cls-87"></path><path d="M234.15,216l-.62-.09-.45-.08-.38-.08-.52-.13-.41-.11-.17-.05-.69-.24h0l-1.37.8-2.38-1.38v1l2.39,1.38,1.37-.8c.22.09.45.17.68.24l.18.05.18.06.22,0,.52.13.17,0,.22,0,.45.08.2,0,.42.06h0v1.12h3.36v-1h-3.36Z" class="cls-88"></path><path d="M242.13,216.06l-1.38-.8a13,13,0,0,1-3.24.78v1.12h-3.36V216a13,13,0,0,1-3.24-.78l-1.37.8-2.38-1.38,1.37-.8a4.23,4.23,0,0,1-1.35-1.87h-2v-1.95h1.95a4.17,4.17,0,0,1,1.33-1.87l-1.38-.8,2.36-1.38,1.38.8a13,13,0,0,1,3.24-.78v-1.12h3.36V206a13,13,0,0,1,3.24.78l1.37-.8,2.38,1.38-1.37.8a4.31,4.31,0,0,1,1.35,1.87h1.95V212h-1.95a4.17,4.17,0,0,1-1.33,1.87l1.38.8Zm-9.43-3.22a6.87,6.87,0,0,0,6.23,0c1.71-1,1.7-2.61,0-3.61a6.91,6.91,0,0,0-6.23,0c-1.71,1-1.7,2.61,0,3.61" class="cls-89"></path><path d="M312.16,149.16c0-7.26-6-12.82-13.31-12.82a13.16,13.16,0,1,0,0,26.32A13.53,13.53,0,0,0,312.16,149.16Z" class="cls-90"></path><path d="M318.76,125a6.42,6.42,0,0,0-6.6-6.35,6.52,6.52,0,1,0,0,13A6.69,6.69,0,0,0,318.76,125Z" class="cls-91"></path></g></g></g></svg>