<svg viewBox="0 0 299.76 259.45" xmlns:xlink="http://www.w3.org/1999/xlink" xmlns="http://www.w3.org/2000/svg"><defs><style>.cls-1{fill:#e7f6fd;}.cls-2{opacity:0.46;}.cls-3{fill:#cde9f9;}.cls-4{fill:url(#未命名的渐变_37);}.cls-5{fill:url(#未命名的渐变_37-2);}.cls-6{fill:url(#未命名的渐变_25);}.cls-7{fill:url(#未命名的渐变_37-3);}.cls-8{fill:url(#未命名的渐变_37-4);}.cls-9{fill:url(#未命名的渐变_37-5);}.cls-10{fill:url(#未命名的渐变_28);}.cls-11{fill:#2a2f6d;}.cls-12{fill:#3dbbed;}.cls-13{fill:url(#未命名的渐变_2);}.cls-14{fill:url(#未命名的渐变_25-2);}.cls-15{fill:#de5fa3;}.cls-16{fill:url(#未命名的渐变_24);}.cls-17{fill:url(#未命名的渐变_24-2);}.cls-18{fill:url(#未命名的渐变_25-3);}.cls-19{fill:url(#未命名的渐变_28-2);}.cls-20,.cls-27{fill:#3c7fbe;}.cls-20{opacity:0.69;isolation:isolate;}.cls-21{opacity:0.32;}.cls-22{fill:url(#未命名的渐变_37-6);}.cls-23{fill:url(#未命名的渐变_37-7);}.cls-24{fill:#fff;}.cls-25{fill:url(#未命名的渐变_37-8);}.cls-26{fill:#fde0d9;}.cls-28{fill:url(#未命名的渐变_25-4);}.cls-29{fill:url(#未命名的渐变_28-3);}.cls-30{fill:#222457;}.cls-31{fill:url(#未命名的渐变_17);}.cls-32{fill:url(#未命名的渐变_17-2);}.cls-33{opacity:0.22;}.cls-34{fill:url(#未命名的渐变_37-9);}.cls-35{fill:url(#未命名的渐变_17-3);}.cls-36{fill:#ecbfb9;}.cls-37{fill:#17a1db;}.cls-38{fill:url(#未命名的渐变_24-3);}.cls-39{fill:url(#未命名的渐变_24-4);}.cls-40{fill:#bd8aae;}.cls-41{fill:url(#未命名的渐变_37-10);}.cls-42{fill:url(#未命名的渐变_37-11);}.cls-43{fill:url(#未命名的渐变_28-4);}.cls-44{fill:url(#未命名的渐变_28-5);}</style><linearGradient gradientUnits="userSpaceOnUse" gradientTransform="matrix(1, 0, 0, -1, 0, 1038.96)" y2="998.81" x2="180.27" y1="998.81" x1="101.33" id="未命名的渐变_37"><stop stop-color="#28a8e0" offset="0.06"></stop><stop stop-opacity="0" stop-color="#29abe2" offset="1"></stop></linearGradient><linearGradient xlink:href="#未命名的渐变_37" y2="917.37" x2="299.76" y1="917.37" x1="220.82" id="未命名的渐变_37-2"></linearGradient><linearGradient gradientUnits="userSpaceOnUse" gradientTransform="matrix(1, 0, 0, -1, 0, 1038.96)" y2="801.86" x2="99.06" y1="801.86" x1="69.63" id="未命名的渐变_25"><stop stop-color="#bd8aae" offset="0"></stop><stop stop-opacity="0" stop-color="#2484c6" offset="1"></stop></linearGradient><linearGradient xlink:href="#未命名的渐变_37" y2="874.75" x2="225.61" y1="874.75" x1="208.87" id="未命名的渐变_37-3"></linearGradient><linearGradient xlink:href="#未命名的渐变_37" y2="789.21" x2="115.8" y1="789.21" x1="99.06" id="未命名的渐变_37-4"></linearGradient><linearGradient xlink:href="#未命名的渐变_37" y2="852.75" x2="40.25" y1="852.75" x1="0" id="未命名的渐变_37-5"></linearGradient><linearGradient gradientUnits="userSpaceOnUse" gradientTransform="matrix(1, 0, 0, -1, 0, 1038.96)" y2="859.91" x2="230.52" y1="859.91" x1="205.36" id="未命名的渐变_28"><stop stop-color="#21409a" offset="0"></stop><stop stop-opacity="0" stop-color="#29abe2" offset="1"></stop></linearGradient><linearGradient gradientUnits="userSpaceOnUse" gradientTransform="matrix(1, 0, 0, -1, 0, 1038.96)" y2="860.39" x2="176.69" y1="860.39" x1="46.38" id="未命名的渐变_2"><stop stop-color="#3c7fbe" offset="0.06"></stop><stop stop-opacity="0.53" stop-color="#1b75bc" offset="0.55"></stop><stop stop-opacity="0" stop-color="#29abe2" offset="1"></stop></linearGradient><linearGradient xlink:href="#未命名的渐变_25" y2="923.9" x2="176.69" y1="923.9" x1="46.38" id="未命名的渐变_25-2"></linearGradient><linearGradient gradientUnits="userSpaceOnUse" gradientTransform="matrix(1, 0, 0, -1, 0, 1038.96)" y2="900.46" x2="145.12" y1="820.67" x1="145.12" id="未命名的渐变_24"><stop stop-color="#bd8aae" offset="0.16"></stop><stop stop-opacity="0" stop-color="#2484c6" offset="1"></stop></linearGradient><linearGradient xlink:href="#未命名的渐变_24" y2="858.43" x2="77.47" y1="820.67" x1="77.47" id="未命名的渐变_24-2"></linearGradient><linearGradient xlink:href="#未命名的渐变_25" y2="923.9" x2="176.69" y1="923.9" x1="111.53" id="未命名的渐变_25-3"></linearGradient><linearGradient xlink:href="#未命名的渐变_28" y2="891.9" x2="144.11" y1="891.9" x1="78.96" id="未命名的渐变_28-2"></linearGradient><linearGradient xlink:href="#未命名的渐变_37" y2="883.33" x2="111.42" y1="883.33" x1="31.18" id="未命名的渐变_37-6"></linearGradient><linearGradient xlink:href="#未命名的渐变_37" y2="921.36" x2="143.4" y1="921.36" x1="81.51" id="未命名的渐变_37-7"></linearGradient><linearGradient xlink:href="#未命名的渐变_37" y2="916.29" x2="127.66" y1="916.29" x1="81.73" id="未命名的渐变_37-8"></linearGradient><linearGradient xlink:href="#未命名的渐变_25" y2="831.78" x2="249.69" y1="831.78" x1="202.33" id="未命名的渐变_25-4"></linearGradient><linearGradient xlink:href="#未命名的渐变_28" y2="846.29" x2="279.12" y1="846.29" x1="208.34" id="未命名的渐变_28-3"></linearGradient><linearGradient gradientUnits="userSpaceOnUse" gradientTransform="matrix(1, 0, 0, -1, 0, 1038.96)" y2="864.13" x2="213.58" y1="864.13" x1="127.9" id="未命名的渐变_17"><stop stop-color="#a7a9ac" offset="0"></stop><stop stop-opacity="0" stop-color="#2484c6" offset="1"></stop></linearGradient><linearGradient xlink:href="#未命名的渐变_17" y2="907.81" x2="232.53" y1="907.81" x1="194.07" id="未命名的渐变_17-2"></linearGradient><linearGradient xlink:href="#未命名的渐变_37" y2="886.67" x2="222" y1="886.67" x1="188.59" id="未命名的渐变_37-9"></linearGradient><linearGradient xlink:href="#未命名的渐变_17" y2="859.09" x2="205.85" y1="859.09" x1="171.93" id="未命名的渐变_17-3"></linearGradient><linearGradient xlink:href="#未命名的渐变_24" y2="953.47" x2="78.29" y1="953.47" x1="72.29" id="未命名的渐变_24-3"></linearGradient><linearGradient xlink:href="#未命名的渐变_24" y2="953.36" x2="79.08" y1="953.36" x1="72.06" id="未命名的渐变_24-4"></linearGradient><linearGradient xlink:href="#未命名的渐变_37" y2="978.44" x2="107.97" y1="978.44" x1="102.26" id="未命名的渐变_37-10"></linearGradient><linearGradient xlink:href="#未命名的渐变_37" y2="978.19" x2="108.01" y1="978.19" x1="101.37" id="未命名的渐变_37-11"></linearGradient><linearGradient xlink:href="#未命名的渐变_28" y2="961.86" x2="115.98" y1="961.86" x1="113.01" id="未命名的渐变_28-4"></linearGradient><linearGradient xlink:href="#未命名的渐变_28" y2="961.5" x2="116.2" y1="961.5" x1="112.31" id="未命名的渐变_28-5"></linearGradient></defs><g id="图层_2"><g id="图层_1-2"><g id="bg"><path d="M183.88,252.7c-14.54-9.07-14.67-24-.31-33.18s37.5-9.26,51.42-.18,14,24,.31,33.19S198.41,261.77,183.88,252.7Z" class="cls-1"></path><g class="cls-2"><path d="M104.38,247.37,25.88,196a5.19,5.19,0,0,1,0-8.38l87.1-57a8.45,8.45,0,0,1,9.39,0l80.26,52.3a5.18,5.18,0,0,1,0,8.38l-85.69,56.11A11.27,11.27,0,0,1,104.38,247.37Z" class="cls-3"></path></g><g class="cls-2"><path d="M154.22,74v5.14a4.67,4.67,0,0,1-2,4,3.59,3.59,0,0,1-4,0L98.75,50.8l-21.45-14a4.71,4.71,0,0,1-2-4V8c0-3.51,3.35-5.71,6-4l8.77,5.73V29.45a4.73,4.73,0,0,0,2,4Z" class="cls-3"></path></g><path d="M180.27,50.86V75.73c0,3.52-3.36,5.72-6.05,4L165.46,74V54.23a4.75,4.75,0,0,0-2-4L101.33,9.72V4.58c0-3.52,3.35-5.72,6-4L178.25,46.9A4.7,4.7,0,0,1,180.27,50.86Z" class="cls-4"></path><g class="cls-2"><path d="M258,150.43v7.82c0,3.52-3.36,5.72-6,4L181,115.93a4.7,4.7,0,0,1-2-4V87.09c0-3.51,3.35-5.71,6-4l18,11.78v17a4.7,4.7,0,0,0,2,4Z" class="cls-3"></path></g><path d="M299.76,132.29v24.88c0,3.51-3.36,5.71-6,4l-18-11.79V132.29a4.72,4.72,0,0,0-2-4l-52.84-34.5V86a5,5,0,0,1,.54-2.3,3.8,3.8,0,0,1,5.51-1.66L262,105l35.74,23.33A4.72,4.72,0,0,1,299.76,132.29Z" class="cls-5"></path></g><g id="bubbles"><path d="M99.06,236.68c0-9.11-6.58-16.07-14.71-16.07S69.63,228,69.63,237.1s6.59,16.49,14.72,16.49S99.06,245.79,99.06,236.68Z" class="cls-6"></path><path d="M225.61,164c0-5.18-3.75-9.14-8.37-9.14s-8.37,4.2-8.37,9.38,3.75,9.37,8.37,9.37S225.61,169.15,225.61,164Z" class="cls-7"></path><path d="M115.8,249.51c0-5.18-3.75-9.13-8.37-9.13s-8.37,4.2-8.37,9.37,3.75,9.38,8.37,9.38S115.8,254.69,115.8,249.51Z" class="cls-8"></path><path d="M40.25,185.63c0-12.46-9-22-20.12-22S0,173.75,0,186.21s9,22.55,20.13,22.55S40.25,198.08,40.25,185.63Z" class="cls-9"></path><path d="M230.52,178.69c0-7.78-5.63-13.73-12.58-13.73s-12.58,6.31-12.58,14.1,5.63,14.09,12.58,14.09S230.52,186.48,230.52,178.69Z" class="cls-10"></path></g><g id="box"><polyline points="111.53 83.07 119.25 86.06 186.69 130.21 171.93 125.82 111.53 83.07" class="cls-3"></polyline><polygon points="46.38 125.73 111.53 83.07 176.69 125.73 111.53 168.39 46.38 125.73" class="cls-11"></polygon><path d="M46.38,130.39v57.78a2.78,2.78,0,0,0,1.18,2.33l61.22,40.08a5,5,0,0,0,5.51,0L175.5,190.5a2.76,2.76,0,0,0,1.19-2.33V125.94a.11.11,0,0,0-.16-.11l-63.81,41.78a2.13,2.13,0,0,1-2.37,0L49.94,128.06C48.35,127,46.38,128.32,46.38,130.39Z" class="cls-12"></path><path d="M46.38,125.73v62.38a2.88,2.88,0,0,0,1.23,2.42l61.14,40a5,5,0,0,0,5.56,0l62.38-40.84V126.08a.18.18,0,0,0-.27-.17l-64.89,42.48Z" class="cls-13"></path><polygon points="78.96 147.06 111.53 125.73 144.11 147.06 176.69 125.73 111.53 83.07 46.38 125.73 78.96 147.06" class="cls-14"></polygon><polygon points="133.06 154.45 133.06 218.29 157.18 202.5 157.18 138.5 133.06 154.45" class="cls-15"></polygon><polygon points="64.92 180.53 64.92 201.86 90.01 218.29 90.01 182.48 78.96 189.72 64.92 180.53" class="cls-15"></polygon><polygon points="133.06 154.45 133.06 218.29 157.18 202.5 157.18 138.5 133.06 154.45" class="cls-16"></polygon><polygon points="64.92 180.53 64.92 201.86 90.01 218.29 90.01 182.48 78.96 189.72 64.92 180.53" class="cls-17"></polygon><polygon points="111.53 83.07 111.53 125.73 144.11 147.06 176.69 125.73 111.53 83.07" class="cls-18"></polygon><polygon points="78.96 147.06 111.53 125.73 144.11 147.06 111.53 168.39 78.96 147.06" class="cls-19"></polygon><path d="M111.53,228.74V168.39L79,189.72,46.38,168.11V187.3a4.31,4.31,0,0,0,1.85,3.63l60.53,39.63A1.86,1.86,0,0,0,111.53,228.74Z" class="cls-20"></path><polygon points="111.42 168.39 106.3 175.94 88.77 201.82 23.74 159.24 31.18 148.27 46.39 125.81 111.42 168.39" class="cls-3"></polygon><g class="cls-21"><path d="M111.42,168.39l-5.12,7.55A103.57,103.57,0,0,0,90,182.48c-21.53,10.36-19.4-8.23-35.19-27.58-6.52-8-15.42-8.63-23.64-6.63l15.21-22.46Z" class="cls-22"></path></g></g><g id="heart"><path d="M107.57,157.27a3.52,3.52,0,0,1-.89-.12c-2-.55-4-2.74-5.38-5.73L86,117.26A48.36,48.36,0,0,1,81.51,98.1c0-4.16,1.11-7.45,3.11-9.28l.21-.2v0l.34-.21a1.32,1.32,0,0,1,.16-.12,4.21,4.21,0,0,1,.45-.28L98.48,79.7c.1-.08,1.11-.73,1.23-.81l.89-.58a5.8,5.8,0,0,1,2.13-.39A10.58,10.58,0,0,1,108.54,80c4.67,3.2,8.94,10.16,10.74,15.39l.18.5.86-.57,0,0a6,6,0,0,1,4.66-2,10.9,10.9,0,0,1,6.06,2.13c6.79,4.65,12.32,16,12.32,25.4a25.6,25.6,0,0,1-1,7.3,12.8,12.8,0,0,1-3.68,6.29l-15.34,13.17a2.25,2.25,0,0,1-.56.36l0,0-12.59,8.22a1.23,1.23,0,0,1-.5.17h-.08l-.4.27a2.88,2.88,0,0,1-.44.28l-.13.09-.11,0A2.6,2.6,0,0,1,107.57,157.27ZM84.65,90.36c-1.42,1.69-2.16,4.37-2.16,7.74a46.92,46.92,0,0,0,4.33,18.58l15.34,34.17c1.19,2.65,3,4.67,4.73,5.13a2.41,2.41,0,0,0,.64.09h.19l.67-.05-.35-.65c-7.44-14.16-12.17-23.64-12.35-24.74-.22-1.29-6.61-25.8-10.35-40.07l-.21-.78Z" class="cls-23"></path><path d="M102.73,78.39a10.21,10.21,0,0,1,5.6,2c4.59,3.14,8.8,10,10.57,15.16l.35,1,.83-.55.4-.26.1-.07.07-.09A5.67,5.67,0,0,1,125,93.79a10.55,10.55,0,0,1,5.85,2.07c6.68,4.57,12.12,15.79,12.12,25a25.15,25.15,0,0,1-1,7.17,12.17,12.17,0,0,1-3.54,6l-15.34,13.18a2.73,2.73,0,0,1-.47.31l0,0,0,0L110,155.82a.85.85,0,0,1-.35.12l-.16,0-.14.1-.34.21,0,0-.61-1.17c-8.8-16.73-12.13-23.67-12.31-24.59-.26-1.61-9.33-36.18-10.36-40.12l-.41-1.55-1,1.18c-1.49,1.78-2.27,4.56-2.27,8.06a47.25,47.25,0,0,0,4.38,18.79l15.33,34.17c1.26,2.81,3.18,4.87,5,5.37a2.62,2.62,0,0,0,.73.1h.22l1-.08-.17.1,0,0,0,0h0l-.12,0a2.35,2.35,0,0,1-.86.17,2.81,2.81,0,0,1-.79-.12c-1.86-.51-3.82-2.61-5.11-5.48L86.34,117A47.61,47.61,0,0,1,81.93,98.1c0-4,1-7.18,2.95-8.92l.32-.3.17-.1h0l.08-.07,0,0,.42-.27h0L98.68,80.1h0l1.21-.79.85-.55a5.54,5.54,0,0,1,2-.35h0m0-.93a6.14,6.14,0,0,0-2.3.43l-.92.59-1.24.81L85.59,87.56a3.88,3.88,0,0,0-.48.3A.83.83,0,0,0,85,88l-.62.4,0,.09c-2.1,1.92-3.26,5.29-3.26,9.64a48.69,48.69,0,0,0,4.51,19.37l15.33,34.16c1.39,3.11,3.56,5.4,5.65,6a3.74,3.74,0,0,0,1,.14,3,3,0,0,0,1.13-.22l0,0,.26-.17a2.59,2.59,0,0,0,.46-.3l.33-.22a1.54,1.54,0,0,0,.65-.23l12.6-8.22a2.88,2.88,0,0,0,.63-.42L139,134.82a13.3,13.3,0,0,0,3.82-6.5,26.12,26.12,0,0,0,1-7.46c0-9.5-5.62-21.08-12.52-25.8a11.21,11.21,0,0,0-6.27-2.2,6.39,6.39,0,0,0-5,2.12l-.41.27c-1.82-5.31-6.15-12.36-10.91-15.62a10.91,10.91,0,0,0-6-2.17Zm4.8,78.14a2.11,2.11,0,0,1-.54-.07c-1.57-.44-3.33-2.36-4.47-4.9L87.19,116.47A46.27,46.27,0,0,1,82.9,98.1c0-3.26.72-5.83,2-7.42,4.19,16,10.14,38.81,10.34,40,.28,1.71,8.93,18.27,12.41,24.89Z" class="cls-24"></path><path d="M106.88,156.63c-1.82,0-4.07-2.17-5.47-5.28L86.08,117.18a46.94,46.94,0,0,1-4.35-18.66c0-6,2.41-9.81,6.3-9.81a9.39,9.39,0,0,1,5.21,1.9c4.47,3.06,8.68,10,10.38,14.91.27.78.82,1.33,1.35,1.33a.76.76,0,0,0,.68-.43,4.91,4.91,0,0,1,4.48-2.38,10.23,10.23,0,0,1,5.65,2c6.55,4.48,11.88,15.46,11.88,24.48,0,5.7-1.5,10.14-4.22,12.5L108.1,156.19a1.83,1.83,0,0,1-1.22.44Z" class="cls-25"></path><path d="M88,88.25v.93A9.15,9.15,0,0,1,93,91c4.39,3,8.53,9.81,10.2,14.68a2.14,2.14,0,0,0,1.74,1.63,1.17,1.17,0,0,0,1-.65,4.5,4.5,0,0,1,4.13-2.17,9.84,9.84,0,0,1,5.44,1.94c6.44,4.41,11.68,15.21,11.68,24.08,0,5.55-1.44,9.86-4,12.12l-15.34,13.18a1.49,1.49,0,0,1-1,.35c-1.41,0-3.62-1.73-5.1-5L86.45,117a46.46,46.46,0,0,1-4.31-18.45c0-5.76,2.26-9.34,5.89-9.34v-.93m0,0c-4,0-6.71,3.76-6.71,10.27a47.59,47.59,0,0,0,4.39,18.87l15.34,34.17c1.51,3.37,3.92,5.54,5.83,5.54a2.19,2.19,0,0,0,1.47-.54l15.34-13.17c2.82-2.45,4.38-7,4.38-12.87h0c0-9.18-5.41-20.31-12.08-24.88a10.51,10.51,0,0,0-5.86-2.07,5.3,5.3,0,0,0-4.82,2.6.4.4,0,0,1-.34.22c-.33,0-.75-.41-1-1-1.62-4.71-5.8-11.89-10.55-15.14h0a9.8,9.8,0,0,0-5.42-2Z" class="cls-24"></path></g><g id="man"><path d="M129.89,176.28s-1.64-2.13-1.29-4.07-.6-3.81-1.22-4-.06,1.64-.5,2.73-.67,1.5-1.7.89S122,169,121,168.68s-.4.92.62,1.94a6.42,6.42,0,0,1,1.37,1.83,26.81,26.81,0,0,0-4.61-1.81c-1.41-.24-1,1.25,1.19,2.39l2.14,1.14s-3.19-1.2-3.92-.73-.83,1,.4,1.38a18.24,18.24,0,0,1,3.32,1.79,13.25,13.25,0,0,0-3.1.1c-.86.26-.86,1.17.63,1.43a6.91,6.91,0,0,1,4.08,2.52c1.34,1.51,4.73,2.94,6.21,1.45S129.89,176.28,129.89,176.28Z" class="cls-26"></path><path d="M229.18,117.52s-.19-3.36.82-4.5a12.69,12.69,0,0,0,2.53-3.63c.36-1.11,1.25-1.08.93.22l-.32,1.3a10.1,10.1,0,0,1,2.9-1.66c1.73-.65,3.43-.17,2.17.51a6.46,6.46,0,0,0-1.88,1.44s2.29-.57,2.91,0-.46.72-1.13,1.29l-.67.58s1.91-.28,2.47.21-.5.55-1.41,1.06l-.9.51a10.25,10.25,0,0,1,2.12.59c.71.35-.51,1.26-1.32,1.25s-2,2.11-2.51,3.09-3.09,2.31-4.41,1.54S229.18,117.52,229.18,117.52Z" class="cls-26"></path><path d="M182.89,135.84c.34,1.22-2.45,5.21-4.93,6.83s-1.24.59-1.24.59L174.94,139l-.64-1.56-.06,0c-3.56,1.61-8.11.81-8.91-2.12s2.69-14.8,2.69-14.8c2.71-4.19,14.78-1.78,15.39,2.22.33,2.2-2.76,6-3.26,9.34-.41,2.71,1.79,5.14,1.79,5.14S182.56,134.62,182.89,135.84Z" class="cls-26"></path><path d="M213.3,178.08s27,21.07,31.25,21.85,24.21-8.86,24.21-8.86.63-4.81-2.67-6.69c0,0-14.9,3.12-17.75,2.73s-20.5-22.19-33.76-21.42S213.3,178.08,213.3,178.08Z" class="cls-11"></path><path d="M281.08,207.45l-5,3.51c-3.75,2.63-18.22,7.37-26.38,9.56a31.14,31.14,0,0,1-5.46,1.17c-2.66-.07-7.17-1.95-23.55-10.75a61.39,61.39,0,0,1-18.35-14.72,35,35,0,0,1-3.94-5.65s9.64-20.89,17.37-19.35a10.34,10.34,0,0,1,2.8,1c5.81,3,8.75,11.28,12.13,17.11,3.88,6.69,12.47,14.22,14.89,15.61s2.29.81,7.1-.27,24.77-6.6,24.77-6.6a9.36,9.36,0,0,1,1.67,1.57A9.79,9.79,0,0,1,281.08,207.45Z" class="cls-27"></path><path d="M249.69,220.52a31.14,31.14,0,0,1-5.46,1.17c-2.66-.07-7.17-1.95-23.55-10.75a61.39,61.39,0,0,1-18.35-14.72l4.4-3.55s3.67,9.63,18.33,18.73C235.39,217.8,243.65,220.23,249.69,220.52Z" class="cls-28"></path><path d="M279.12,199.63c-13,4.64-30,12.78-33.05,13.38-4.28.85-7.76-2.67-13.54-9.65s-24.19-21.85-24.19-21.85l10.22-9.3c5.81,3,8.75,11.28,12.13,17.11,3.88,6.69,12.47,14.22,14.89,15.61s2.29.81,7.1-.27,24.77-6.6,24.77-6.6A9.36,9.36,0,0,1,279.12,199.63Z" class="cls-29"></path><path d="M204.14,142.68c-1.56.42-2.62.68-2.62.68s.19.37.55,1c2,3.6,9.23,15.84,15.32,19.25l4.61,2s-.38,1.79-1.14,4.46c-1.31,4.6-3.73,11.77-7.26,16.77l0,0a22.94,22.94,0,0,1-1.81,2.24,38.33,38.33,0,0,1-5.92,5.3c-2.79,2-4.16,2-4.16,2S181.17,185.71,172,165.65l0,0h0c-.54.84-8.91,13.66-13.12,15.47S128,183,128,183s0-.16-.07-.45a18.6,18.6,0,0,1,.69-7.67s25.91-4.13,27.91-7.11,6.16-13.15,9-17.58c0,0,15.35-17.62,25.86-20,1.08-.24,2.14-.46,3.18-.65,9.13-1.73,16.8-1.94,21.05-4.29,4.72-2.61,13.25-8.74,13.25-8.74A4.81,4.81,0,0,1,232,119a11.12,11.12,0,0,1,.54,4.39S219,136.85,216.36,138.58C214.51,139.8,207.88,141.68,204.14,142.68Z" class="cls-3"></path><path d="M160.56,114.78s2.46,7.86,8.22,7.56,7.48,2.3,7.19,4.57l-.3,2.28s1.28-2.32,2.65-2.55-.16,4.23-1,5.42l-.82,1.18s5.76-1,9.09-5.23,2-9.8-.33-10.21c0,0,1.54-9.15-5.17-11s-8.4,1.43-11.05,0-2.1-.6-2.1-.6l.54,1.2a.51.51,0,0,1-.52.75,6,6,0,0,1-2.75-1.53.38.38,0,0,0-.66.31,6.54,6.54,0,0,0,.66,3,22,22,0,0,1-2.39-2.88.57.57,0,0,0-1,.22C160.31,109.31,159.66,112.8,160.56,114.78Z" class="cls-11"></path><path d="M277.42,199.52s3.24,7.56,4.47,7.48,8.15,6.41,9.12,6,1.29-6.68-.05-8.19-4-2.32-4.91-4.63A4.56,4.56,0,0,0,282,197.1C280.64,197,278.37,197,277.42,199.52Z" class="cls-30"></path><path d="M267.4,189.19s6.09,3.44,7.22,4.81,3,1.26,1.71-2.26-2.26-4.48-2.67-6.23-3-3-4.53-2.25a16.19,16.19,0,0,0-3.28,2.44Z" class="cls-30"></path><path d="M174.36,153.2a2.67,2.67,0,0,1,0-.32A2.67,2.67,0,0,0,174.36,153.2Z" class="cls-11"></path><path d="M213.58,186.92a22.94,22.94,0,0,1-1.81,2.24c-6.79,7.23-10.08,7.28-10.08,7.28S181.17,185.71,172,165.65c0,0-8.8,13.64-13.15,15.51S128,183,128,183s0-.16-.07-.45c8.94-1,29.25-3.47,32.21-6.13a95.11,95.11,0,0,0,12.73-15.58,15.12,15.12,0,0,0,1.52-7.65,31.17,31.17,0,0,0,8.11,17.91c7.67,7.94,12.09,19.71,20.69,18.87C211.23,189.21,213.34,187.17,213.58,186.92Z" class="cls-31"></path><path d="M232.5,123.34S219,136.85,216.36,138.58s-14.84,4.78-14.84,4.78h0l-7.45-6.66s16.68.36,26.71-6.62S232,119,232,119A11.12,11.12,0,0,1,232.5,123.34Z" class="cls-32"></path><path d="M194.57,129.6a31.2,31.2,0,0,1-4.56,1.55c-8.08,2.18-19,14.56-22.34,18s-8.43,16.24-10,19.05-14,4.77-17.52,6.59-11.52.09-11.52.09,25.91-4.13,27.91-7.11,6.16-13.15,9-17.58c0,0,15.35-17.62,25.86-20C192.47,130,193.53,129.79,194.57,129.6Z" class="cls-1"></path><g class="cls-33"><path d="M222,165.66s-.38,1.79-1.14,4.46c-5.14-1.75-14.72-5.8-18.05-12.48-4.64-9.3-8.92-18.41-12.84-20.83-3.33-2.06-.43-4.74,6.61,1.69.33.3.5.28.62.75.06.26.77.62,1.19,1,1.25,1.17,3.13,3.1,3.13,3.1s.19.37.55,1c2,3.6,9.23,15.84,15.32,19.25Z" class="cls-34"></path></g><path d="M205.85,194.46c-2.79,2-4.16,2-4.16,2S181.17,185.71,172,165.65l0,0c.45-1.18.89-2.38.89-2.38a68.62,68.62,0,0,0,15.77,22C195.5,191.65,202.05,193.76,205.85,194.46Z" class="cls-35"></path><path d="M176.85,134.46a15.59,15.59,0,0,1-1.91,4.51l-.64-1.56-.06,0A9.06,9.06,0,0,0,176.85,134.46Z" class="cls-36"></path></g><g id="confetti"><path d="M100.84,91.19s4.15-.53,6.44-5.63" class="cls-1"></path><path d="M101,92.81l-.32-3.24.16,1.62-.17-1.62c.14,0,3.44-.55,5.33-4.75l2.56,1.49C106,92.12,101.2,92.78,101,92.81Z" class="cls-1"></path><path d="M84.05,44.35a8.94,8.94,0,0,0,7.1,4.49" class="cls-37"></path><path d="M82.8,45.16l2.5-1.62-1.25.81,1.24-.82a7.46,7.46,0,0,0,5.95,3.68l-.18,3.26A10.39,10.39,0,0,1,82.8,45.16Z" class="cls-37"></path><path d="M72.29,86a6.6,6.6,0,0,0,6-1.24" class="cls-38"></path><path d="M72.06,87l.46-2.08-.23,1,.22-1a5.57,5.57,0,0,0,5-1.08l1.58,1.77A7.67,7.67,0,0,1,72.06,87Z" class="cls-39"></path><path d="M119.92,63.59s4.15-.53,6.44-5.62" class="cls-40"></path><path d="M120.08,65.21,119.76,62l.16,1.62L119.75,62c.14,0,3.45-.54,5.33-4.74l2.56,1.48C125,64.52,120.28,65.18,120.08,65.21Z" class="cls-40"></path><path d="M129,85.6a8.94,8.94,0,0,0,7.1,4.49" class="cls-37"></path><path d="M127.78,86.41l2.5-1.62L129,85.6l1.24-.82a7.48,7.48,0,0,0,6,3.68L136,91.72A10.42,10.42,0,0,1,127.78,86.41Z" class="cls-37"></path><path d="M88.73,72.21a6.65,6.65,0,0,0,6-1.24" class="cls-40"></path><path d="M88.5,73.25,89,71.17l-.24,1,.23-1a5.48,5.48,0,0,0,5-1.08l1.59,1.77A7.68,7.68,0,0,1,88.5,73.25Z" class="cls-40"></path><path d="M102.26,59.14A6.59,6.59,0,0,0,108,61.9" class="cls-41"></path><path d="M101.37,59.86l1.78-1.45-.89.73.89-.74a5.49,5.49,0,0,0,4.77,2.26l.09,2.48A7.65,7.65,0,0,1,101.37,59.86Z" class="cls-42"></path><path d="M131,107.63a8.62,8.62,0,0,0,0,7" class="cls-1"></path><path d="M130.06,107l1.88,1.28-.94-.64.94.63a7.3,7.3,0,0,0,.06,5.87l-2,1.07A10,10,0,0,1,130.06,107Z" class="cls-1"></path><path d="M113,75.07a6.37,6.37,0,0,0,3,4.07" class="cls-43"></path><path d="M112.31,75.29l1.4-.43-.7.21.7-.22a5.25,5.25,0,0,0,2.49,3.36l-.44,1.85A7.39,7.39,0,0,1,112.31,75.29Z" class="cls-44"></path></g></g></g></svg>