<?xml version="1.0" standalone="no"?><!DOCTYPE svg PUBLIC "-//W3C//DTD SVG 1.1//EN" "http://www.w3.org/Graphics/SVG/1.1/DTD/svg11.dtd">
<svg class="icon" width="22px" height="22.00px" viewBox="0 0 1024 1024" version="1.1"
  xmlns="http://www.w3.org/2000/svg">
  <path fill="" d="M906.795723 1024H116.255862a116.255862 116.255862 0 0 1-116.255862-116.255862V127.667305a116.255862 116.255862 0 0 1 116.255862-116.255862h651.032827v46.502345H116.255862a69.753517 69.753517 0 0 0-69.753517 69.753517v781.239392a69.753517 69.753517 0 0 0 69.753517 69.753517h790.539861a69.753517 69.753517 0 0 0 69.753517-69.753517V242.528096h46.502345v666.378601A116.255862 116.255862 0 0 1 906.795723 1024z" />
  <path fill="" d="M476.649034 506.893926a23.251172 23.251172 0 0 1-16.508333-6.74284 23.251172 23.251172 0 0 1-6.74284-16.508332 23.251172 23.251172 0 0 1 6.975352-16.508332l465.023448-460.373214a23.251172 23.251172 0 0 1 32.784153 0 23.251172 23.251172 0 0 1 6.74284 16.275821 23.251172 23.251172 0 0 1-6.975352 16.508332l-465.023448 459.675678a23.251172 23.251172 0 0 1-16.27582 7.672887z" />
</svg>