<?xml version="1.0" standalone="no"?><!DOCTYPE svg PUBLIC "-//W3C//DTD SVG 1.1//EN" "http://www.w3.org/Graphics/SVG/1.1/DTD/svg11.dtd">
<svg class="icon" width="22px" height="22.00px" viewBox="0 0 1024 1024" version="1.1"
  xmlns="http://www.w3.org/2000/svg">
  <path fill="" d="M824.975585 1023.756249a123.581887 123.581887 0 0 1-87.262949-36.318937l-182.082188-179.888427a78.487904 78.487904 0 0 0-55.087784-21.937613 75.562889 75.562889 0 0 0-54.35653 24.375126l-157.21956 164.775848a123.825638 123.825638 0 0 1-137.71946 29.737654A121.875628 121.875628 0 0 1 73.246713 890.180561V123.33911A124.31314 124.31314 0 0 1 198.047356 0.000975h627.903234A124.31314 124.31314 0 0 1 950.751233 123.33911v776.591501a121.875628 121.875628 0 0 1-76.294143 113.831836 130.894424 130.894424 0 0 1-49.481505 9.993802zM501.76142 736.861021a124.069389 124.069389 0 0 1 87.994203 36.075186l182.32594 179.644675a75.562889 75.562889 0 0 0 83.60668 16.087583 73.125377 73.125377 0 0 0 46.312739-68.737854V123.33911A75.319138 75.319138 0 0 0 825.95059 48.751226H198.047356A75.319138 75.319138 0 0 0 121.996964 123.33911v766.110197a73.125377 73.125377 0 0 0 47.287743 68.981605 75.319138 75.319138 0 0 0 84.337935-18.037593l157.21956-164.775849a124.800643 124.800643 0 0 1 88.969208-38.756449z" />
</svg>