<?xml version="1.0" standalone="no"?><!DOCTYPE svg PUBLIC "-//W3C//DTD SVG 1.1//EN" "http://www.w3.org/Graphics/SVG/1.1/DTD/svg11.dtd">
<svg class="icon" width="22px" height="22.00px" viewBox="0 0 1024 1024" version="1.1"
  xmlns="http://www.w3.org/2000/svg">
  <path fill="" d="M192 309.333333H21.333333a21.333333 21.333333 0 0 1-21.333333-21.333333 21.333333 21.333333 0 0 1 21.333333-21.333333h170.666667a21.333333 21.333333 0 0 1 21.333333 21.333333 21.333333 21.333333 0 0 1-21.333333 21.333333zM192 423.04H21.333333a21.333333 21.333333 0 0 1-21.333333-21.333333 21.333333 21.333333 0 0 1 21.333333-21.333334h170.666667a21.333333 21.333333 0 0 1 21.333333 21.333334 21.333333 21.333333 0 0 1-21.333333 21.333333zM192 536.96H21.333333a21.333333 21.333333 0 0 1-21.333333-21.333333 21.333333 21.333333 0 0 1 21.333333-21.333334h170.666667a21.333333 21.333333 0 0 1 21.333333 21.333334 21.333333 21.333333 0 0 1-21.333333 21.333333zM192 650.666667H21.333333a21.333333 21.333333 0 0 1-21.333333-21.333334 21.333333 21.333333 0 0 1 21.333333-21.333333h170.666667a21.333333 21.333333 0 0 1 21.333333 21.333333 21.333333 21.333333 0 0 1-21.333333 21.333334zM917.333333 650.666667h-170.666666a106.666667 106.666667 0 0 1-106.666667-106.666667v-85.333333a106.666667 106.666667 0 0 1 106.666667-106.666667h170.666666a106.666667 106.666667 0 0 1 106.666667 106.666667v85.333333a106.666667 106.666667 0 0 1-106.666667 106.666667z m-170.666666-256a64 64 0 0 0-64 64v85.333333a64 64 0 0 0 64 64h170.666666a64 64 0 0 0 64-64v-85.333333a64 64 0 0 0-64-64z" />
  <path fill="" d="M832 1024H192a106.666667 106.666667 0 0 1-106.666667-106.666667V106.666667a106.666667 106.666667 0 0 1 106.666667-106.666667h640a106.666667 106.666667 0 0 1 106.666667 106.666667v288h-192a64 64 0 0 0-64 64v85.333333a64 64 0 0 0 64 64h192V917.333333a106.666667 106.666667 0 0 1-106.666667 106.666667zM192 42.666667a64 64 0 0 0-64 64v810.666666a64 64 0 0 0 64 64h640a64 64 0 0 0 64-64V650.666667h-149.333333a106.666667 106.666667 0 0 1-106.666667-106.666667v-85.333333a106.666667 106.666667 0 0 1 106.666667-106.666667h149.333333V106.666667a64 64 0 0 0-64-64z" />
</svg>