<?xml version="1.0" standalone="no"?><!DOCTYPE svg PUBLIC "-//W3C//DTD SVG 1.1//EN" "http://www.w3.org/Graphics/SVG/1.1/DTD/svg11.dtd">
<svg class="icon" width="22px" height="17.66px" viewBox="0 0 1276 1024" version="1.1"
  xmlns="http://www.w3.org/2000/svg">
  <path fill="" d="M1143.688312 851.116883H132.987013a132.987013 132.987013 0 0 1-132.987013-132.987013V132.987013a132.987013 132.987013 0 0 1 132.987013-132.987013h1010.701299a132.987013 132.987013 0 0 1 132.987013 132.987013v585.142857a132.987013 132.987013 0 0 1-132.987013 132.987013zM132.987013 53.194805a79.792208 79.792208 0 0 0-79.792208 79.792208v585.142857a79.792208 79.792208 0 0 0 79.792208 79.792208h1010.701299a79.792208 79.792208 0 0 0 79.792207-79.792208V132.987013a79.792208 79.792208 0 0 0-79.792207-79.792208z" />
  <path fill="" d="M611.74026 837.818182h53.194805v159.584415h-53.194805z" />
  <path fill="" d="M1170.285714 1024H106.38961a26.597403 26.597403 0 0 1-26.597402-26.597403 26.597403 26.597403 0 0 1 26.597402-26.597402h1063.896104a26.597403 26.597403 0 0 1 26.597403 26.597402 26.597403 26.597403 0 0 1-26.597403 26.597403z" />
</svg>