<?xml version="1.0" standalone="no"?><!DOCTYPE svg PUBLIC "-//W3C//DTD SVG 1.1//EN" "http://www.w3.org/Graphics/SVG/1.1/DTD/svg11.dtd">
<svg class="icon" width="22px" height="22.00px" viewBox="0 0 1024 1024" version="1.1"
  xmlns="http://www.w3.org/2000/svg">
  <path fill="" d="M96 64a32 32 0 0 1 32 32v800h800a32 32 0 1 1 0 64H96a32 32 0 0 1-32-32V96a32 32 0 0 1 32-32z" />
  <path fill="" d="M939.232 194.048a32 32 0 0 1 18.72 41.184l-144 384a32 32 0 0 1-29.952 20.8h-158.88l-118.496 177.728a32 32 0 0 1-49.28 4.864l-92-92-121.696 94.656a32 32 0 1 1-39.296-50.56l144-112a32 32 0 0 1 42.272 2.656l84.416 84.416 106.336-159.52A32 32 0 0 1 608 576h153.824l136.224-363.2a32 32 0 0 1 41.184-18.752z" />
</svg>