<?xml version="1.0" standalone="no"?><!DOCTYPE svg PUBLIC "-//W3C//DTD SVG 1.1//EN" "http://www.w3.org/Graphics/SVG/1.1/DTD/svg11.dtd">
<svg class="icon" width="22px" height="22.00px" viewBox="0 0 1024 1024" version="1.1"
  xmlns="http://www.w3.org/2000/svg">
  <path d="M64 96a32 32 0 0 1 32-32h832a32 32 0 0 1 32 32v544a32 32 0 0 1-32 32H96a32 32 0 0 1-32-32V96z m64 32v480h768V128H128z" fill="" />
  <path d="M128 608V128h768v480H128z" fill="" />
  <path d="M512 608a32 32 0 0 1 26.624 14.24l192 288a32 32 0 0 1-53.248 35.52L512 697.696l-165.376 248.064a32 32 0 0 1-53.248-35.52l192-288A32 32 0 0 1 512 608z" fill="" />
  <path d="M192 224a32 32 0 0 1 32-32h192a32 32 0 1 1 0 64H224a32 32 0 0 1-32-32z m0 128a32 32 0 0 1 32-32h192a32 32 0 1 1 0 64H224a32 32 0 0 1-32-32z m0 128a32 32 0 0 1 32-32h192a32 32 0 1 1 0 64H224a32 32 0 0 1-32-32zM672 256a96 96 0 1 0 0 192 96 96 0 0 0 0-192z m-160 96a160 160 0 1 1 320 0 160 160 0 0 1-320 0z" fill="" />
</svg>