<?xml version="1.0" standalone="no"?><!DOCTYPE svg PUBLIC "-//W3C//DTD SVG 1.1//EN" "http://www.w3.org/Graphics/SVG/1.1/DTD/svg11.dtd">
<svg class="icon" width="22px" height="22.00px" viewBox="0 0 1024 1024" version="1.1"
  xmlns="http://www.w3.org/2000/svg">
  <path d="M716.736 100.864a32 32 0 0 1 44.384 8.768l195.904 292.448a32 32 0 0 1-8.768 44.384l-233.056 156.16a32 32 0 0 1-17.824 5.408h-91.36a32 32 0 0 1-31.744-35.968 224.032 224.032 0 0 0-128.16-231.36 32 32 0 0 1-4.352-55.648l274.976-184.192zM519.68 309.888A287.616 287.616 0 0 1 640 544h47.648l198.4-132.928L725.76 171.84l-206.08 138.048z" fill="" />
  <path d="M640 544a287.616 287.616 0 0 0-120.32-234.112l206.08-138.048 160.32 239.264-198.432 132.928h-47.68z" fill="" />
  <path d="M607.968 548.672L608 544a256.64 256.64 0 0 0-6.848-59.136 48 48 0 1 0-38.144-85.92 257.472 257.472 0 0 0-42.72-47.872 112 112 0 1 1 87.68 197.6z" fill="" />
  <path d="M574.272 572.032a32 32 0 0 1 31.744-28.032H864a32 32 0 0 1 32 32v352a32 32 0 0 1-32 32H288a32 32 0 0 1-32-32v-136.064a32 32 0 0 1 40-31.008 224.032 224.032 0 0 0 278.304-188.896zM632.832 608c-29.12 128.256-143.744 224-280.832 224-10.816 0-21.472-0.608-32-1.76V896h512v-288h-199.136z" fill="" />
  <path d="M352 832c137.088 0 251.744-95.744 280.864-224H832v288H320v-65.76c10.528 1.152 21.184 1.76 32 1.76z" fill="" />
  <path d="M480.768 765.312A112 112 0 1 0 589.376 640a256.96 256.96 0 0 1-108.608 125.28zM592 704a48 48 0 1 0 0 96 48 48 0 0 0 0-96z" fill="" />
  <path d="M352 320a224 224 0 1 0 0 448 224 224 0 0 0 0-448z m-288 224a288 288 0 1 1 576 0 288 288 0 0 1-576 0z" fill="" />
  <path d="M352 384a32 32 0 0 1 32 32v114.752l86.624 86.624a32 32 0 0 1-45.248 45.248l-96-96A32 32 0 0 1 320 544v-128a32 32 0 0 1 32-32z" fill="" />
</svg>