<?xml version="1.0" standalone="no"?><!DOCTYPE svg PUBLIC "-//W3C//DTD SVG 1.1//EN" "http://www.w3.org/Graphics/SVG/1.1/DTD/svg11.dtd">
<svg class="icon" width="22px" height="22.00px" viewBox="0 0 1024 1024" version="1.1"
  xmlns="http://www.w3.org/2000/svg">
  <path d="M800 160a32 32 0 0 1 32 32v96a32 32 0 0 1-32 32H160a32 32 0 0 1-32-32V192a32 32 0 0 1 32-32h640z m-32 64H192v32h576V224z" fill="" />
  <path d="M128 288a32 32 0 0 1 32-32h704a32 32 0 0 1 32 32v512a32 32 0 0 1-32 32H160a32 32 0 0 1-32-32V288z m64 32v448h640V320H192z" fill="" />
  <path d="M192 768V320h640v448H192z" fill="" />
  <path d="M768 544a64 64 0 1 1-128 0 64 64 0 0 1 128 0z" fill="" />
</svg>